<svg width="866" height="626" xmlns="http://www.w3.org/2000/svg" xmlns:xlink="http://www.w3.org/1999/xlink" xml:space="preserve" overflow="hidden"><g transform="translate(-2352 -198)"><path d="M0 25.4999C-4.58328e-15 11.4167 11.4167-4.5833e-15 25.4998-9.16659e-15L262.5 0C276.583-4.5833e-15 288 11.4167 288 25.4999L288 25.4999C288 39.5832 276.583 50.9999 262.5 50.9999L25.4998 50.9999C11.4167 50.9999 0 39.5832 0 25.4999Z" fill="#F2F2F2" fill-rule="evenodd" transform="matrix(6.12323e-17 1 1 -6.12323e-17 3038 390)"/><path d="M0 8.00014C-1.59142e-15 3.58178 3.58177 0 8.00011 0L92 0C96.4184-1.59142e-15 100 3.58178 100 8.00014L100 8.00014C100 12.4185 96.4183 16.0003 91.9999 16.0003L8.00011 16.0002C3.58177 16.0002 0 12.4184 0 8.00003Z" fill="#FFC5C5" fill-rule="evenodd" transform="matrix(6.12323e-17 1 1 -6.12323e-17 3056 626)"/><path d="M0 8.00016C0 3.58179 3.58176-3.31813e-15 8.00009-4.42417e-15L131 0C135.418-1.10604e-15 139 3.58179 139 8.00016L139 8.00016C139 12.4185 135.418 16.0003 131 16.0003L8.00009 16.0002C3.58176 16.0002-1.10603e-15 12.4184 0 8.00001Z" fill="#FFC5C5" fill-rule="evenodd" transform="matrix(6.12323e-17 1 1 -6.12323e-17 3089 574)"/><path d="M0 8.00014C-1.59141e-15 3.58178 3.58176 0 8.00008 0L91.9997 0C96.418-1.59142e-15 99.9998 3.58178 99.9998 8.00014L99.9997 8.00014C99.9997 12.4185 96.4179 16.0003 91.9996 16.0003L8.00008 16.0002C3.58176 16.0002 0 12.4184 0 8.00003Z" fill="#FFC5C5" fill-rule="evenodd" transform="matrix(6.12323e-17 1 1 -6.12323e-17 3023 599)"/><path d="M2530 413C2516.19 413 2505 401.807 2505 388L2505 271C2505 257.193 2516.19 246 2530 246L2530 246C2543.81 246 2555 257.193 2555 271L2555 388C2555 401.807 2543.81 413 2530 413Z" fill="#F2F2F2" fill-rule="evenodd"/><path d="M2530.5 299C2525.81 299 2522 295.195 2522 290.5L2522 207.5C2522 202.806 2525.81 199 2530.5 199L2530.5 199C2535.19 199 2539 202.806 2539 207.5L2539 290.5C2539 295.195 2535.19 299 2530.5 299Z" fill="#C00000" fill-rule="evenodd"/><path d="M2563.5 351C2558.81 351 2555 347.194 2555 342.5L2555 220.5C2555 215.805 2558.81 212 2563.5 212L2563.5 212C2568.19 212 2572 215.805 2572 220.5L2572 342.5C2572 347.194 2568.19 351 2563.5 351Z" fill="#C00000" fill-rule="evenodd"/><path d="M2497.5 326C2492.81 326 2489 322.194 2489 317.5L2489 234.5C2489 229.805 2492.81 226 2497.5 226L2497.5 226C2502.19 226 2506 229.805 2506 234.5L2506 317.5C2506 322.194 2502.19 326 2497.5 326Z" fill="#C00000" fill-rule="evenodd"/><path d="M2390.89 205.5 2423.27 265.183 2407.57 265.183 2407.57 769.075 3124.97 769.075 3124.97 753.359 3207.5 785.775 3124.97 818.191 3124.97 802.475 2407.57 802.475 2407.57 819.5 2374.2 819.5 2374.2 802.475 2358.5 802.475 2358.5 769.075 2374.2 769.075 2374.2 265.183 2358.5 265.183Z" stroke="#000000" stroke-width="6.875" stroke-miterlimit="8" fill="#C00000" fill-rule="evenodd"/><path d="M2509.5 394.5 2552.41 394.5 2557.4 443.908C2580.3 555.623 2679.32 639.66 2798 639.66 2916.68 639.66 3015.7 555.623 3038.6 443.908L3043.59 394.5 3086.5 394.5C3086.5 553.558 2957.33 682.5 2798 682.5 2638.67 682.5 2509.5 553.558 2509.5 394.5Z" stroke="#000000" stroke-width="6.875" stroke-miterlimit="8" fill="#FFC5C5" fill-rule="evenodd"/><path d="M2500.5 394.5C2500.5 377.379 2514.16 363.5 2531 363.5 2547.84 363.5 2561.5 377.379 2561.5 394.5 2561.5 411.621 2547.84 425.5 2531 425.5 2514.16 425.5 2500.5 411.621 2500.5 394.5Z" stroke="#000000" stroke-width="6.875" stroke-miterlimit="8" fill="#FFFFFF" fill-rule="evenodd"/><path d="M3033.5 394.5C3033.5 377.379 3047.16 363.5 3064 363.5 3080.84 363.5 3094.5 377.379 3094.5 394.5 3094.5 411.621 3080.84 425.5 3064 425.5 3047.16 425.5 3033.5 411.621 3033.5 394.5Z" stroke="#000000" stroke-width="6.875" stroke-miterlimit="8" fill="#FFFFFF" fill-rule="evenodd"/><path d="M2767.5 658.5C2767.5 641.379 2781.16 627.5 2798 627.5 2814.84 627.5 2828.5 641.379 2828.5 658.5 2828.5 675.621 2814.84 689.5 2798 689.5 2781.16 689.5 2767.5 675.621 2767.5 658.5Z" stroke="#000000" stroke-width="6.875" stroke-miterlimit="8" fill="#FFFFFF" fill-rule="evenodd"/></g></svg>