<svg width="1422" height="597" xmlns="http://www.w3.org/2000/svg" xmlns:xlink="http://www.w3.org/1999/xlink" xml:space="preserve" overflow="hidden"><defs><clipPath id="clip0"><rect x="1484" y="895" width="1422" height="597"/></clipPath></defs><g clip-path="url(#clip0)" transform="translate(-1484 -895)"><path d="M2072 1467C2091.33 1467 2107 1451.33 2107 1432L2107 1432C2107 1412.67 2091.33 1397 2072 1397L1623 1397C1603.67 1397 1588 1412.67 1588 1432L1588 1432C1588 1451.33 1603.67 1467 1623 1467Z" fill="#F2F2F2" fill-rule="evenodd"/><path d="M1624.5 1438C1629.19 1438 1633 1434.19 1633 1429.5L1633 1429.5C1633 1424.81 1629.19 1421 1624.5 1421L1492.5 1421C1487.81 1421 1484 1424.81 1484 1429.5L1484 1429.5C1484 1434.19 1487.81 1438 1492.5 1438Z" fill="#D9D9D9" fill-rule="evenodd"/><path d="M1729.5 1405C1734.19 1405 1738 1401.19 1738 1396.5L1738 1396.5C1738 1391.81 1734.19 1388 1729.5 1388L1539.5 1388C1534.81 1388 1531 1391.81 1531 1396.5L1531 1396.5C1531 1401.19 1534.81 1405 1539.5 1405Z" fill="#D9D9D9" fill-rule="evenodd"/><path d="M1665.5 1471C1670.19 1471 1674 1467.19 1674 1462.5L1674 1462.5C1674 1457.81 1670.19 1454 1665.5 1454L1533.5 1454C1528.81 1454 1525 1457.81 1525 1462.5L1525 1462.5C1525 1467.19 1528.81 1471 1533.5 1471Z" fill="#D9D9D9" fill-rule="evenodd"/><path d="M2318.5 958C2299.45 958 2284 973.446 2284 992.5L2284 992.5C2284 1011.55 2299.45 1027 2318.5 1027L2767.5 1027C2786.55 1027 2802 1011.55 2802 992.5L2802 992.5C2802 973.446 2786.55 958 2767.5 958Z" fill="#F2F2F2" fill-rule="evenodd"/><path d="M2765 987C2760.58 987 2757 990.582 2757 995L2757 995C2757 999.419 2760.58 1003 2765 1003L2898 1003C2902.42 1003 2906 999.418 2906 995L2906 995C2906 990.582 2902.42 987 2898 987Z" fill="#D9D9D9" fill-rule="evenodd"/><path d="M2661 1020C2656.58 1020 2653 1023.58 2653 1028L2653 1028C2653 1032.42 2656.58 1036 2661 1036L2851 1036C2855.42 1036 2859 1032.42 2859 1028L2859 1028C2859 1023.58 2855.42 1020 2851 1020Z" fill="#D9D9D9" fill-rule="evenodd"/><path d="M2724 954C2719.58 954 2716 957.582 2716 962L2716 962C2716 966.419 2719.58 970 2724 970L2857 970C2861.42 970 2865 966.418 2865 962L2865 962C2865 957.582 2861.42 954 2857 954Z" fill="#D9D9D9" fill-rule="evenodd"/><path d="M1812.13 1405.48C1756.94 1297.15 1887.08 1120.23 2102.81 1010.31 2318.54 900.385 2538.17 899.092 2593.37 1007.42 2648.56 1115.75 2518.42 1292.67 2302.69 1402.59 2086.96 1512.51 1867.33 1513.8 1812.13 1405.48Z" stroke="#000000" stroke-width="10.3125" stroke-miterlimit="8" fill="#C00000" fill-rule="evenodd"/><path d="M1797.23 1378.91C1742.03 1270.59 1872.18 1093.66 2087.91 983.743 2303.64 873.822 2523.27 872.529 2578.47 980.856 2633.66 1089.18 2503.52 1266.11 2287.79 1376.03 2072.05 1485.95 1852.42 1487.24 1797.23 1378.91Z" stroke="#000000" stroke-width="10.3125" stroke-miterlimit="8" fill="#FFC5C5" fill-rule="evenodd"/><path d="M0 21.5162C-1.31522e-14 9.63314 46.2517-2.7393e-15 103.306-5.4786e-15 160.36-1.09572e-14 206.612 9.63314 206.612 21.5162 206.612 33.3993 160.36 43.0324 103.306 43.0324 46.2517 43.0324-6.57612e-14 33.3993 0 21.5162Z" fill="#FFFFFF" fill-rule="evenodd" transform="matrix(0.929559 -0.368674 -0.368674 -0.929559 2161.35 1043.2)"/><path d="M0 12.4051C-7.58288e-15 5.55397 26.6663-1.57934e-15 59.5608-3.15868e-15 92.4553-6.31736e-15 119.122 5.55397 119.122 12.4051 119.122 19.2563 92.4553 24.8103 59.5608 24.8103 26.6663 24.8103-3.79144e-14 19.2563 0 12.4051Z" fill="#FFFFFF" fill-rule="evenodd" transform="matrix(0.929559 -0.368674 -0.368674 -0.929559 2345.24 1022.99)"/><path d="M3.74989 347.348C-6.55779 270.195 6.21454 190.374 19.9581 141.18 35.4196 86.4853 73.0824-7.2857 79.757 0.450394" stroke="#FFC5C5" stroke-width="10.3125" stroke-miterlimit="8" fill="none" fill-rule="evenodd" transform="matrix(-0.568986 -0.822347 -0.822347 0.568986 2678.77 1191.91)"/><path d="M3.74989 347.348C-6.55779 270.195 6.21454 190.374 19.9581 141.18 35.4196 86.4853 73.0824-7.2857 79.757 0.450394" stroke="#FFC5C5" stroke-width="10.3125" stroke-miterlimit="8" fill="none" fill-rule="evenodd" transform="matrix(0.534985 0.844861 0.844861 -0.534985 1728.85 1163.57)"/></g></svg>