<svg width="1095" height="652" xmlns="http://www.w3.org/2000/svg" xmlns:xlink="http://www.w3.org/1999/xlink" xml:space="preserve" overflow="hidden"><g transform="translate(-1034 -1238)"><path d="M1120 1847.5C1120 1828.45 1135.45 1813 1154.5 1813L1514.5 1813C1533.55 1813 1549 1828.45 1549 1847.5L1549 1847.5C1549 1866.55 1533.55 1882 1514.5 1882L1154.5 1882C1135.45 1882 1120 1866.55 1120 1847.5Z" fill="#F2F2F2" fill-rule="evenodd"/><path d="M1366 1485.5C1366 1466.45 1381.45 1451 1400.5 1451L2035.5 1451C2054.55 1451 2070 1466.45 2070 1485.5L2070 1485.5C2070 1504.55 2054.55 1520 2035.5 1520L1400.5 1520C1381.45 1520 1366 1504.55 1366 1485.5Z" fill="#F2F2F2" fill-rule="evenodd"/><path d="M1295 1333.5C1295 1314.45 1310.45 1299 1329.5 1299L1825.5 1299C1844.55 1299 1860 1314.45 1860 1333.5L1860 1333.5C1860 1352.55 1844.55 1368 1825.5 1368L1329.5 1368C1310.45 1368 1295 1352.55 1295 1333.5Z" fill="#F2F2F2" fill-rule="evenodd"/><g><g><g><path d="M2711.67 708.191 2735.69 708.191 2677.06 969.621C2671.09 996.224 2668.1 1016.31 2668.1 1029.89 2668.1 1040.75 2669.86 1048.62 2673.39 1053.51 2676.92 1058.39 2682.49 1060.84 2690.09 1060.84 2698.23 1060.84 2706.92 1057.51 2716.15 1050.86 2725.38 1044.21 2738.41 1031.52 2755.24 1012.78L2778.45 1035.59C2751.84 1063.55 2730.27 1082.55 2713.71 1092.6 2697.15 1102.65 2678.55 1107.67 2657.92 1107.67 2640.27 1107.67 2626.16 1101.22 2615.57 1088.32 2604.99 1075.43 2599.69 1058.94 2599.69 1038.85 2599.69 1018.21 2603.48 991.881 2611.09 959.848L2641.63 826.689C2647.88 799.542 2651 779.181 2651 765.607 2651 753.392 2648.08 745.111 2642.25 740.767 2636.4 736.424 2624.93 733.98 2607.83 733.438L2612.32 711.855ZM2700.68 552.229 2772.75 552.229 2754.03 631.228 2681.95 631.228Z" stroke="#000000" stroke-width="23.0136" stroke-linejoin="round" stroke-miterlimit="10" fill="#FFC5C5" fill-rule="evenodd" transform="matrix(1.00074 0 0 1 -1423.7 732.796)"/></g></g></g><path d="M1980 1484.5C1980 1479.81 1983.81 1476 1988.5 1476L2120.5 1476C2125.19 1476 2129 1479.81 2129 1484.5L2129 1484.5C2129 1489.19 2125.19 1493 2120.5 1493L1988.5 1493C1983.81 1493 1980 1489.19 1980 1484.5Z" fill="#C00000" fill-rule="evenodd"/><path d="M1875 1517.5C1875 1512.81 1878.81 1509 1883.5 1509L2073.5 1509C2078.19 1509 2082 1512.81 2082 1517.5L2082 1517.5C2082 1522.19 2078.19 1526 2073.5 1526L1883.5 1526C1878.81 1526 1875 1522.19 1875 1517.5Z" fill="#C00000" fill-rule="evenodd"/><path d="M1939 1451.5C1939 1446.81 1942.81 1443 1947.5 1443L2079.5 1443C2084.19 1443 2088 1446.81 2088 1451.5L2088 1451.5C2088 1456.19 2084.19 1460 2079.5 1460L1947.5 1460C1942.81 1460 1939 1456.19 1939 1451.5Z" fill="#C00000" fill-rule="evenodd"/><path d="M1447 1653.5C1447 1599.65 1490.65 1556 1544.5 1556 1598.35 1556 1642 1599.65 1642 1653.5 1642 1707.35 1598.35 1751 1544.5 1751 1490.65 1751 1447 1707.35 1447 1653.5Z" stroke="#000000" stroke-width="13.75" stroke-miterlimit="8" fill="#FFFFFF" fill-rule="evenodd"/><path d="M1790 1720.5C1790 1647.32 1849.1 1588 1922 1588 1994.9 1588 2054 1647.32 2054 1720.5 2054 1793.68 1994.9 1853 1922 1853 1849.1 1853 1790 1793.68 1790 1720.5Z" stroke="#000000" stroke-width="13.75" stroke-miterlimit="8" fill="#C00000" fill-rule="evenodd"/><path d="M1677 1399C1677 1362.55 1706.55 1333 1743 1333 1779.45 1333 1809 1362.55 1809 1399 1809 1435.45 1779.45 1465 1743 1465 1706.55 1465 1677 1435.45 1677 1399Z" stroke="#000000" stroke-width="13.75" stroke-miterlimit="8" fill="#FFC5C5" fill-rule="evenodd"/><path d="M1529 1848.5C1529 1843.81 1532.81 1840 1537.5 1840L1669.5 1840C1674.19 1840 1678 1843.81 1678 1848.5L1678 1848.5C1678 1853.19 1674.19 1857 1669.5 1857L1537.5 1857C1532.81 1857 1529 1853.19 1529 1848.5Z" fill="#FFC5C5" fill-rule="evenodd"/><path d="M1424 1881.5C1424 1876.81 1427.81 1873 1432.5 1873L1622.5 1873C1627.19 1873 1631 1876.81 1631 1881.5L1631 1881.5C1631 1886.19 1627.19 1890 1622.5 1890L1432.5 1890C1427.81 1890 1424 1886.19 1424 1881.5Z" fill="#FFC5C5" fill-rule="evenodd"/><path d="M1488 1815.5C1488 1810.81 1491.81 1807 1496.5 1807L1628.5 1807C1633.19 1807 1637 1810.81 1637 1815.5L1637 1815.5C1637 1820.19 1633.19 1824 1628.5 1824L1496.5 1824C1491.81 1824 1488 1820.19 1488 1815.5Z" fill="#FFC5C5" fill-rule="evenodd"/></g></svg>