<svg width="1409" height="723" xmlns="http://www.w3.org/2000/svg" xmlns:xlink="http://www.w3.org/1999/xlink" xml:space="preserve" overflow="hidden"><g transform="translate(-2809 -926)"><path d="M3448 1578.5C3448 1543.43 3476.65 1515 3512 1515 3547.35 1515 3576 1543.43 3576 1578.5 3576 1613.57 3547.35 1642 3512 1642 3476.65 1642 3448 1613.57 3448 1578.5Z" stroke="#C00000" stroke-width="13.75" stroke-miterlimit="8" fill="none" fill-rule="evenodd"/><path d="M3831 1016C3831 970.16 3868.16 933 3914 933 3959.84 933 3997 970.16 3997 1016 3997 1061.84 3959.84 1099 3914 1099 3868.16 1099 3831 1061.84 3831 1016Z" stroke="#C00000" stroke-width="13.75" stroke-miterlimit="8" fill="none" fill-rule="evenodd"/><path d="M3868.49 1428.44C3863.38 1428.44 3859.24 1432.47 3859.24 1437.44L3859.24 1437.44C3859.24 1442.42 3863.38 1446.44 3868.49 1446.44L4078.98 1446.44C4084.1 1446.44 4088.24 1442.42 4088.24 1437.44L4088.24 1437.44C4088.24 1432.47 4084.1 1428.44 4078.98 1428.44Z" fill="#FFC5C5" fill-rule="evenodd"/><path d="M3939.49 1473.41C3934.38 1473.41 3930.24 1477.66 3930.24 1482.91L3930.24 1482.91C3930.24 1488.16 3934.38 1492.41 3939.49 1492.41L4149.98 1492.41C4155.1 1492.41 4159.24 1488.16 4159.24 1482.91L4159.24 1482.91C4159.24 1477.66 4155.1 1473.41 4149.98 1473.41Z" fill="#FFC5C5" fill-rule="evenodd"/><path d="M3426.41 1586.43C3448.4 1586.43 3466.24 1568.51 3466.24 1546.43L3466.24 1546.43C3466.24 1524.34 3448.4 1506.43 3426.41 1506.43L2908.07 1506.43C2886.07 1506.43 2868.24 1524.34 2868.24 1546.43L2868.24 1546.43C2868.24 1568.51 2886.07 1586.43 2908.07 1586.43Z" fill="#F2F2F2" fill-rule="evenodd"/><path d="M4177.34 1051.43C4199.37 1051.43 4217.24 1033.74 4217.24 1011.93L4217.24 1011.93C4217.24 990.123 4199.37 972.434 4177.34 972.434L3658.13 972.434C3636.1 972.434 3618.24 990.123 3618.24 1011.93L3618.24 1011.93C3618.24 1033.74 3636.1 1051.43 3658.13 1051.43Z" fill="#F2F2F2" fill-rule="evenodd"/><path d="M3531 1028 3531 1543 3019 1543 3021.66 1490.33C3046.25 1247.89 3238.78 1055.15 3480.95 1030.53L3531 1028Z" stroke="#000000" stroke-width="13.75" stroke-miterlimit="8" fill="#D9D9D9" fill-rule="evenodd"/><path d="M3891 1339 3579 1339 3579 1028 3610.91 1029.61C3757.78 1044.55 3874.55 1161.5 3889.47 1308.6L3891 1339Z" stroke="#000000" stroke-width="13.75" stroke-miterlimit="8" fill="#FFC5C5" fill-rule="evenodd"/><path d="M3714 1547 3714 1370 3891 1370 3890.08 1388.1C3881.58 1471.43 3815.02 1537.67 3731.3 1546.13L3714 1547Z" stroke="#000000" stroke-width="13.75" stroke-miterlimit="8" fill="#C00000" fill-rule="evenodd"/><path d="M3580 1443 3684 1443 3684 1547 3673.36 1546.46C3624.41 1541.46 3585.48 1502.36 3580.51 1453.17L3580 1443Z" stroke="#000000" stroke-width="13.75" stroke-miterlimit="8" fill="#FFFFFF" fill-rule="evenodd"/><path d="M2818.49 1110.44C2813.38 1110.44 2809.24 1114.47 2809.24 1119.44L2809.24 1119.44C2809.24 1124.42 2813.38 1128.44 2818.49 1128.44L3028.98 1128.44C3034.1 1128.44 3038.24 1124.42 3038.24 1119.44L3038.24 1119.44C3038.24 1114.47 3034.1 1110.44 3028.98 1110.44Z" fill="#FFC5C5" fill-rule="evenodd"/><path d="M2889.45 1155.44C2884.36 1155.44 2880.24 1159.47 2880.24 1164.44L2880.24 1164.44C2880.24 1169.42 2884.36 1173.44 2889.45 1173.44L3099.03 1173.44C3104.12 1173.44 3108.24 1169.42 3108.24 1164.44L3108.24 1164.44C3108.24 1159.47 3104.12 1155.44 3099.03 1155.44Z" fill="#FFC5C5" fill-rule="evenodd"/><path d="M2866 1236.5C2866 1173.26 2917.26 1122 2980.5 1122 3043.74 1122 3095 1173.26 3095 1236.5 3095 1299.74 3043.74 1351 2980.5 1351 2917.26 1351 2866 1299.74 2866 1236.5Z" stroke="#C00000" stroke-width="13.75" stroke-miterlimit="8" fill="none" fill-rule="evenodd"/></g></svg>