<svg width="983" height="397" xmlns="http://www.w3.org/2000/svg" xmlns:xlink="http://www.w3.org/1999/xlink" xml:space="preserve" overflow="hidden"><defs><clipPath id="clip0"><rect x="912" y="1694" width="983" height="397"/></clipPath></defs><g clip-path="url(#clip0)" transform="translate(-912 -1694)"><path d="M1108 1769.5C1108 1750.45 1123.45 1735 1142.5 1735L1591.5 1735C1610.55 1735 1626 1750.45 1626 1769.5L1626 1769.5C1626 1788.55 1610.55 1804 1591.5 1804L1142.5 1804C1123.45 1804 1108 1788.55 1108 1769.5Z" fill="#F2F2F2" fill-rule="evenodd"/><path d="M1175 1887.5C1175 1868.45 1190.45 1853 1209.5 1853L1659.5 1853C1678.55 1853 1694 1868.45 1694 1887.5L1694 1887.5C1694 1906.55 1678.55 1922 1659.5 1922L1209.5 1922C1190.45 1922 1175 1906.55 1175 1887.5Z" fill="#F2F2F2" fill-rule="evenodd"/><path d="M1220 2004C1220 1984.67 1235.67 1969 1255 1969L1703 1969C1722.33 1969 1738 1984.67 1738 2004L1738 2004C1738 2023.33 1722.33 2039 1703 2039L1255 2039C1235.67 2039 1220 2023.33 1220 2004Z" fill="#F2F2F2" fill-rule="evenodd"/><path d="M1248 2005.5C1248 1986.45 1263.45 1971 1282.5 1971L1731.5 1971C1750.55 1971 1766 1986.45 1766 2005.5L1766 2005.5C1766 2024.55 1750.55 2040 1731.5 2040L1282.5 2040C1263.45 2040 1248 2024.55 1248 2005.5Z" fill="#F2F2F2" fill-rule="evenodd"/><path d="M955.035 2000.81C953.09 1989.93 1037.98 1965.66 1144.63 1946.59 1251.29 1927.53 1339.33 1920.89 1341.28 1931.77L1355.36 2010.57C1357.31 2021.45 1272.42 2045.72 1165.76 2064.79 1059.11 2083.85 971.065 2090.49 969.121 2079.61Z" fill="#C00000" fill-rule="evenodd"/><path d="M1341.28 1931.77C1343.22 1942.65 1258.33 1966.92 1151.68 1985.99 1045.02 2005.06 956.98 2011.69 955.035 2000.81" stroke="#000000" stroke-width="10.3125" stroke-miterlimit="8" fill="none" fill-rule="evenodd"/><path d="M955.035 2000.81C953.09 1989.93 1037.98 1965.66 1144.63 1946.59 1251.29 1927.53 1339.33 1920.89 1341.28 1931.77L1355.36 2010.57C1357.31 2021.45 1272.42 2045.72 1165.76 2064.79 1059.11 2083.85 971.065 2090.49 969.121 2079.61Z" stroke="#000000" stroke-width="10.3125" stroke-miterlimit="8" fill="none" fill-rule="evenodd"/><path d="M934.695 1897.29C932.712 1886.2 1017.57 1861.75 1124.23 1842.69 1230.88 1823.62 1318.95 1817.16 1320.94 1828.25L1335.29 1908.57C1337.28 1919.66 1252.42 1944.11 1145.76 1963.18 1039.11 1982.24 951.036 1988.71 949.053 1977.62Z" fill="#FFC5C5" fill-rule="evenodd"/><path d="M1320.94 1828.25C1322.92 1839.34 1238.06 1863.79 1131.4 1882.85 1024.75 1901.92 936.677 1908.38 934.695 1897.29" stroke="#000000" stroke-width="10.3125" stroke-miterlimit="8" fill="none" fill-rule="evenodd"/><path d="M934.695 1897.29C932.712 1886.2 1017.57 1861.75 1124.23 1842.69 1230.88 1823.62 1318.95 1817.16 1320.94 1828.25L1335.29 1908.57C1337.28 1919.66 1252.42 1944.11 1145.76 1963.18 1039.11 1982.24 951.036 1988.71 949.053 1977.62Z" stroke="#000000" stroke-width="10.3125" stroke-miterlimit="8" fill="none" fill-rule="evenodd"/><path d="M917.236 1794.6C915.254 1783.5 1000.11 1759.06 1106.77 1739.99 1213.42 1720.93 1301.49 1714.46 1303.48 1725.55L1317.84 1805.88C1319.82 1816.97 1234.96 1841.41 1128.31 1860.48 1021.65 1879.55 933.577 1886.01 931.595 1874.92Z" fill="#F2F2F2" fill-rule="evenodd"/><path d="M1303.48 1725.55C1305.46 1736.64 1220.6 1761.09 1113.95 1780.15 1007.29 1799.22 919.219 1805.69 917.236 1794.6" stroke="#000000" stroke-width="10.3125" stroke-miterlimit="8" fill="none" fill-rule="evenodd"/><path d="M917.236 1794.6C915.254 1783.5 1000.11 1759.06 1106.77 1739.99 1213.42 1720.93 1301.49 1714.46 1303.48 1725.55L1317.84 1805.88C1319.82 1816.97 1234.96 1841.41 1128.31 1860.48 1021.65 1879.55 933.577 1886.01 931.595 1874.92Z" stroke="#000000" stroke-width="10.3125" stroke-miterlimit="8" fill="none" fill-rule="evenodd"/><path d="M1532 1772C1532 1767.58 1535.58 1764 1540 1764L1673 1764C1677.42 1764 1681 1767.58 1681 1772L1681 1772C1681 1776.42 1677.42 1780 1673 1780L1540 1780C1535.58 1780 1532 1776.42 1532 1772Z" fill="#C00000" fill-rule="evenodd"/><path d="M1427 1805C1427 1800.58 1430.58 1797 1435 1797L1626 1797C1630.42 1797 1634 1800.58 1634 1805L1634 1805C1634 1809.42 1630.42 1813 1626 1813L1435 1813C1430.58 1813 1427 1809.42 1427 1805Z" fill="#C00000" fill-rule="evenodd"/><path d="M1491 1739C1491 1734.58 1494.58 1731 1499 1731L1632 1731C1636.42 1731 1640 1734.58 1640 1739L1640 1739C1640 1743.42 1636.42 1747 1632 1747L1499 1747C1494.58 1747 1491 1743.42 1491 1739Z" fill="#C00000" fill-rule="evenodd"/><path d="M1643 1888.5C1643 1883.81 1646.81 1880 1651.5 1880L1783.5 1880C1788.19 1880 1792 1883.81 1792 1888.5L1792 1888.5C1792 1893.19 1788.19 1897 1783.5 1897L1651.5 1897C1646.81 1897 1643 1893.19 1643 1888.5Z" fill="#FFC5C5" fill-rule="evenodd"/><path d="M1538 1921.5C1538 1916.81 1541.81 1913 1546.5 1913L1736.5 1913C1741.19 1913 1745 1916.81 1745 1921.5L1745 1921.5C1745 1926.19 1741.19 1930 1736.5 1930L1546.5 1930C1541.81 1930 1538 1926.19 1538 1921.5Z" fill="#FFC5C5" fill-rule="evenodd"/><path d="M1602 1855.5C1602 1850.81 1605.81 1847 1610.5 1847L1742.5 1847C1747.19 1847 1751 1850.81 1751 1855.5L1751 1855.5C1751 1860.19 1747.19 1864 1742.5 1864L1610.5 1864C1605.81 1864 1602 1860.19 1602 1855.5Z" fill="#FFC5C5" fill-rule="evenodd"/><path d="M1746 2006C1746 2001.58 1749.58 1998 1754 1998L1887 1998C1891.42 1998 1895 2001.58 1895 2006L1895 2006C1895 2010.42 1891.42 2014 1887 2014L1754 2014C1749.58 2014 1746 2010.42 1746 2006Z" fill="#D9D9D9" fill-rule="evenodd"/><path d="M1642 2039C1642 2034.58 1645.58 2031 1650 2031L1840 2031C1844.42 2031 1848 2034.58 1848 2039L1848 2039C1848 2043.42 1844.42 2047 1840 2047L1650 2047C1645.58 2047 1642 2043.42 1642 2039Z" fill="#D9D9D9" fill-rule="evenodd"/><path d="M1705 1973C1705 1968.58 1708.58 1965 1713 1965L1846 1965C1850.42 1965 1854 1968.58 1854 1973L1854 1973C1854 1977.42 1850.42 1981 1846 1981L1713 1981C1708.58 1981 1705 1977.42 1705 1973Z" fill="#D9D9D9" fill-rule="evenodd"/><path d="M1298 2081.5C1298 2076.25 1302.25 2072 1307.5 2072L1489.5 2072C1494.75 2072 1499 2076.25 1499 2081.5L1499 2081.5C1499 2086.75 1494.75 2091 1489.5 2091L1307.5 2091C1302.25 2091 1298 2086.75 1298 2081.5Z" fill="#FFC5C5" fill-rule="evenodd"/><path d="M925 1702C925 1697.58 928.582 1694 933 1694L1066 1694C1070.42 1694 1074 1697.58 1074 1702L1074 1702C1074 1706.42 1070.42 1710 1066 1710L933 1710C928.582 1710 925 1706.42 925 1702Z" fill="#C00000" fill-rule="evenodd"/></g></svg>