<svg width="988" height="483" xmlns="http://www.w3.org/2000/svg" xmlns:xlink="http://www.w3.org/1999/xlink" xml:space="preserve" overflow="hidden"><defs><clipPath id="clip0"><rect x="914" y="1730" width="988" height="483"/></clipPath></defs><g clip-path="url(#clip0)" transform="translate(-914 -1730)"><path d="M1220 1958.5C1220 1939.45 1235.45 1924 1254.5 1924L1766.5 1924C1785.55 1924 1801 1939.45 1801 1958.5L1801 1958.5C1801 1977.55 1785.55 1993 1766.5 1993L1254.5 1993C1235.45 1993 1220 1977.55 1220 1958.5Z" fill="#F2F2F2" fill-rule="evenodd"/><path d="M1110 1816.5C1110 1797.45 1125.45 1782 1144.5 1782L1582.5 1782C1601.55 1782 1617 1797.45 1617 1816.5L1617 1816.5C1617 1835.55 1601.55 1851 1582.5 1851L1144.5 1851C1125.45 1851 1110 1835.55 1110 1816.5Z" fill="#F2F2F2" fill-rule="evenodd"/><path d="M1584.37 2044C1566.35 2044 1551.75 2069.52 1551.75 2101 1551.75 2132.48 1566.35 2158 1584.37 2158L993.627 2158C975.608 2158 961 2132.48 961 2101 961 2069.52 975.608 2044 993.627 2044Z" fill="#FFC5C5" fill-rule="evenodd"/><path d="M1584.37 2044C1602.39 2044 1617 2069.52 1617 2101 1617 2132.48 1602.39 2158 1584.37 2158 1566.35 2158 1551.75 2132.48 1551.75 2101 1551.75 2069.52 1566.35 2044 1584.37 2044Z" fill="#FFDCDC" fill-rule="evenodd"/><path d="M1584.37 2158C1566.35 2158 1551.75 2132.48 1551.75 2101 1551.75 2069.52 1566.35 2044 1584.37 2044 1602.39 2044 1617 2069.52 1617 2101 1617 2132.48 1602.39 2158 1584.37 2158L993.627 2158C975.608 2158 961 2132.48 961 2101 961 2069.52 975.608 2044 993.627 2044L1584.37 2044" stroke="#000000" stroke-width="10.3125" stroke-miterlimit="8" fill="none" fill-rule="evenodd"/><path d="M1166.37 1901C1148.35 1901 1133.75 1926.52 1133.75 1958 1133.75 1989.48 1148.35 2015 1166.37 2015L994.627 2015C976.608 2015 962 1989.48 962 1958 962 1926.52 976.608 1901 994.627 1901Z" fill="#FFC5C5" fill-rule="evenodd"/><path d="M1166.37 1901C1184.39 1901 1199 1926.52 1199 1958 1199 1989.48 1184.39 2015 1166.37 2015 1148.35 2015 1133.75 1989.48 1133.75 1958 1133.75 1926.52 1148.35 1901 1166.37 1901Z" fill="#FFDCDC" fill-rule="evenodd"/><path d="M1166.37 2015C1148.35 2015 1133.75 1989.48 1133.75 1958 1133.75 1926.52 1148.35 1901 1166.37 1901 1184.39 1901 1199 1926.52 1199 1958 1199 1989.48 1184.39 2015 1166.37 2015L994.627 2015C976.608 2015 962 1989.48 962 1958 962 1926.52 976.608 1901 994.627 1901L1166.37 1901" stroke="#000000" stroke-width="10.3125" stroke-miterlimit="8" fill="none" fill-rule="evenodd"/><path d="M1164.66 1760C1146.8 1760 1132.32 1785.3 1132.32 1816.5 1132.32 1847.7 1146.8 1873 1164.66 1873L996.34 1873C978.479 1873 964 1847.7 964 1816.5 964 1785.3 978.479 1760 996.34 1760Z" fill="#D9D9D9" fill-rule="evenodd"/><path d="M1164.66 1760C1182.52 1760 1197 1785.3 1197 1816.5 1197 1847.7 1182.52 1873 1164.66 1873 1146.8 1873 1132.32 1847.7 1132.32 1816.5 1132.32 1785.3 1146.8 1760 1164.66 1760Z" fill="#E8E8E8" fill-rule="evenodd"/><path d="M1164.66 1873C1146.8 1873 1132.32 1847.7 1132.32 1816.5 1132.32 1785.3 1146.8 1760 1164.66 1760 1182.52 1760 1197 1785.3 1197 1816.5 1197 1847.7 1182.52 1873 1164.66 1873L996.34 1873C978.479 1873 964 1847.7 964 1816.5 964 1785.3 978.479 1760 996.34 1760L1164.66 1760" stroke="#000000" stroke-width="10.3125" stroke-miterlimit="8" fill="none" fill-rule="evenodd"/><path d="M1374.66 1901C1356.8 1901 1342.33 1926.29 1342.33 1957.49 1342.33 1988.69 1356.8 2013.99 1374.66 2013.99L1202.34 2013.99C1184.48 2013.99 1170 1988.69 1170 1957.49 1170 1926.29 1184.48 1901 1202.34 1901Z" fill="#FFC5C5" fill-rule="evenodd"/><path d="M1374.66 1901C1392.52 1901 1407 1926.29 1407 1957.49 1407 1988.69 1392.52 2013.99 1374.66 2013.99 1356.8 2013.99 1342.33 1988.69 1342.33 1957.49 1342.33 1926.29 1356.8 1901 1374.66 1901Z" fill="#FFDCDC" fill-rule="evenodd"/><path d="M1374.66 2013.99C1356.8 2013.99 1342.33 1988.69 1342.33 1957.49 1342.33 1926.29 1356.8 1901 1374.66 1901 1392.52 1901 1407 1926.29 1407 1957.49 1407 1988.69 1392.52 2013.99 1374.66 2013.99L1202.34 2013.99C1184.48 2013.99 1170 1988.69 1170 1957.49 1170 1926.29 1184.48 1901 1202.34 1901L1374.66 1901" stroke="#000000" stroke-width="10.3125" stroke-miterlimit="8" fill="none" fill-rule="evenodd"/><path d="M1584.66 1902C1566.8 1902 1552.33 1927.29 1552.33 1958.49 1552.33 1989.69 1566.8 2014.99 1584.66 2014.99L1412.34 2014.99C1394.48 2014.99 1380 1989.69 1380 1958.49 1380 1927.29 1394.48 1902 1412.34 1902Z" fill="#FFC5C5" fill-rule="evenodd"/><path d="M1584.66 1902C1602.52 1902 1617 1927.29 1617 1958.49 1617 1989.69 1602.52 2014.99 1584.66 2014.99 1566.8 2014.99 1552.33 1989.69 1552.33 1958.49 1552.33 1927.29 1566.8 1902 1584.66 1902Z" fill="#FFDCDC" fill-rule="evenodd"/><path d="M1584.66 2014.99C1566.8 2014.99 1552.33 1989.69 1552.33 1958.49 1552.33 1927.29 1566.8 1902 1584.66 1902 1602.52 1902 1617 1927.29 1617 1958.49 1617 1989.69 1602.52 2014.99 1584.66 2014.99L1412.34 2014.99C1394.48 2014.99 1380 1989.69 1380 1958.49 1380 1927.29 1394.48 1902 1412.34 1902L1584.66 1902" stroke="#000000" stroke-width="10.3125" stroke-miterlimit="8" fill="none" fill-rule="evenodd"/><path d="M1788.37 2044C1770.35 2044 1755.75 2069.52 1755.75 2101 1755.75 2132.48 1770.35 2158 1788.37 2158L1616.63 2158C1598.61 2158 1584 2132.48 1584 2101 1584 2069.52 1598.61 2044 1616.63 2044Z" fill="#C00000" fill-rule="evenodd"/><path d="M1788.37 2044C1806.39 2044 1821 2069.52 1821 2101 1821 2132.48 1806.39 2158 1788.37 2158 1770.35 2158 1755.75 2132.48 1755.75 2101 1755.75 2069.52 1770.35 2044 1788.37 2044Z" fill="#D96666" fill-rule="evenodd"/><path d="M1788.37 2158C1770.35 2158 1755.75 2132.48 1755.75 2101 1755.75 2069.52 1770.35 2044 1788.37 2044 1806.39 2044 1821 2069.52 1821 2101 1821 2132.48 1806.39 2158 1788.37 2158L1616.63 2158C1598.61 2158 1584 2132.48 1584 2101 1584 2069.52 1598.61 2044 1616.63 2044L1788.37 2044" stroke="#000000" stroke-width="10.3125" stroke-miterlimit="8" fill="none" fill-rule="evenodd"/><path d="M1491 1816C1491 1811.58 1494.58 1808 1499 1808L1632 1808C1636.42 1808 1640 1811.58 1640 1816L1640 1816C1640 1820.42 1636.42 1824 1632 1824L1499 1824C1494.58 1824 1491 1820.42 1491 1816Z" fill="#D9D9D9" fill-rule="evenodd"/><path d="M1386 1849C1386 1844.58 1389.58 1841 1394 1841L1585 1841C1589.42 1841 1593 1844.58 1593 1849L1593 1849C1593 1853.42 1589.42 1857 1585 1857L1394 1857C1389.58 1857 1386 1853.42 1386 1849Z" fill="#D9D9D9" fill-rule="evenodd"/><path d="M1450 1783C1450 1778.58 1453.58 1775 1458 1775L1591 1775C1595.42 1775 1599 1778.58 1599 1783L1599 1783C1599 1787.42 1595.42 1791 1591 1791L1458 1791C1453.58 1791 1450 1787.42 1450 1783Z" fill="#D9D9D9" fill-rule="evenodd"/><path d="M1753 1957.5C1753 1952.81 1756.81 1949 1761.5 1949L1893.5 1949C1898.19 1949 1902 1952.81 1902 1957.5L1902 1957.5C1902 1962.19 1898.19 1966 1893.5 1966L1761.5 1966C1756.81 1966 1753 1962.19 1753 1957.5Z" fill="#D9D9D9" fill-rule="evenodd"/><path d="M1649 1990.5C1649 1985.81 1652.81 1982 1657.5 1982L1846.5 1982C1851.19 1982 1855 1985.81 1855 1990.5L1855 1990.5C1855 1995.19 1851.19 1999 1846.5 1999L1657.5 1999C1652.81 1999 1649 1995.19 1649 1990.5Z" fill="#D9D9D9" fill-rule="evenodd"/><path d="M1713 1924.5C1713 1919.81 1716.81 1916 1721.5 1916L1853.5 1916C1858.19 1916 1862 1919.81 1862 1924.5L1862 1924.5C1862 1929.19 1858.19 1933 1853.5 1933L1721.5 1933C1716.81 1933 1713 1929.19 1713 1924.5Z" fill="#D9D9D9" fill-rule="evenodd"/><path d="M914 2205C914 2200.58 917.582 2197 922 2197L1113 2197C1117.42 2197 1121 2200.58 1121 2205L1121 2205C1121 2209.42 1117.42 2213 1113 2213L922 2213C917.582 2213 914 2209.42 914 2205Z" fill="#C00000" fill-rule="evenodd"/><path d="M1502 1738.5C1502 1733.81 1505.81 1730 1510.5 1730L1699.5 1730C1704.19 1730 1708 1733.81 1708 1738.5L1708 1738.5C1708 1743.19 1704.19 1747 1699.5 1747L1510.5 1747C1505.81 1747 1502 1743.19 1502 1738.5Z" fill="#C00000" fill-rule="evenodd"/></g></svg>