<svg width="1505" height="780" xmlns="http://www.w3.org/2000/svg" xmlns:xlink="http://www.w3.org/1999/xlink" xml:space="preserve" overflow="hidden"><defs><clipPath id="clip0"><rect x="2286" y="1219" width="407" height="781"/></clipPath><clipPath id="clip1"><rect x="2286" y="1219" width="407" height="781"/></clipPath></defs><g transform="translate(-1787 -1220)"><path d="M2154.97 1706.13C2235.84 1706.21 2309.99 1751.16 2347.47 1822.81" stroke="#C00000" stroke-width="20.625" stroke-miterlimit="8" fill="none" fill-rule="evenodd"/><path d="M2904.78 1480.08C2825.17 1475.79 2754.29 1428.28 2720.06 1356.28" stroke="#C00000" stroke-width="20.625" stroke-miterlimit="8" fill="none" fill-rule="evenodd"/><path d="M3251.34 1386.43C3273.37 1386.43 3291.24 1368.51 3291.24 1346.43L3291.24 1346.43C3291.24 1324.34 3273.37 1306.43 3251.34 1306.43L2732.13 1306.43C2710.1 1306.43 2692.24 1324.34 2692.24 1346.43L2692.24 1346.43C2692.24 1368.51 2710.1 1386.43 2732.13 1386.43Z" fill="#F2F2F2" fill-rule="evenodd"/><path d="M2361.34 1865.43C2383.37 1865.43 2401.24 1847.74 2401.24 1825.93L2401.24 1825.93C2401.24 1804.12 2383.37 1786.43 2361.34 1786.43L1842.13 1786.43C1820.1 1786.43 1802.24 1804.12 1802.24 1825.93L1802.24 1825.93C1802.24 1847.74 1820.1 1865.43 1842.13 1865.43Z" fill="#F2F2F2" fill-rule="evenodd"/><g clip-path="url(#clip0)"><g clip-path="url(#clip1)"><g><path d="M2002.55 934.72C2010.14 934.72 2018.54 935.75 2027.76 937.809 2036.97 939.87 2044.83 942.417 2051.34 945.453L2047.43 1008.55 2013.94 1008.55C2012.2 999.009 2008.73 991.15 2003.52 984.97 1998.32 978.791 1991.39 975.7 1982.71 975.7 1959.52 975.7 1944.28 994.511 1937.02 1032.13 1929.75 1069.75 1926.12 1155.99 1926.12 1290.85 1926.12 1402.74 1915.88 1491.53 1895.38 1557.23 1874.89 1622.93 1838.73 1655.77 1786.92 1655.77 1776.51 1655.77 1767.4 1654.91 1759.59 1653.18 1751.78 1651.44 1744.2 1648.63 1736.83 1644.73L1741.06 1580.65 1771.63 1580.65C1774.45 1591.06 1778.62 1599.62 1784.15 1606.34 1789.68 1613.06 1797.54 1616.43 1807.73 1616.43 1830.5 1616.43 1844.81 1592.85 1850.67 1545.68 1856.52 1498.52 1859.44 1429.73 1859.44 1339.32 1859.44 1198.38 1870.12 1095.72 1891.49 1031.32 1912.84 966.919 1949.87 934.72 2002.55 934.72Z" stroke="#000000" stroke-width="22.0979" stroke-linejoin="round" stroke-miterlimit="10" fill="#FFC5C5" fill-rule="evenodd" transform="matrix(1.00155 0 0 1 614.444 306.75)"/><path d="M2223.4 1169.09C2230.12 1169.09 2236.02 1169.85 2241.13 1171.37 2246.22 1172.88 2250.71 1175.22 2254.62 1178.36 2258.52 1181.5 2261.99 1185.57 2265.02 1190.56 2268.06 1195.55 2270.99 1202.31 2273.81 1210.88 2276.63 1219.45 2279.28 1230.07 2281.78 1242.75 2284.27 1255.44 2286.49 1268.62 2288.45 1282.28L2291.7 1282.28C2312.51 1253 2328.29 1231.59 2339.02 1218.04 2349.75 1204.49 2358.8 1194.4 2366.18 1187.79 2373.55 1181.17 2380.65 1176.51 2387.48 1173.81 2394.31 1171.09 2403.37 1169.74 2414.64 1169.74 2424.83 1169.74 2433.18 1171.04 2439.68 1173.64L2426.68 1232.52 2403.9 1232.52C2402.61 1223.4 2398.81 1218.86 2392.52 1218.86 2390.57 1218.86 2388.51 1219.18 2386.34 1219.82 2384.17 1220.48 2381.52 1221.89 2378.38 1224.06 2375.23 1226.22 2370.62 1230.45 2364.55 1236.75 2358.48 1243.03 2351.65 1250.73 2344.06 1259.83 2336.47 1268.93 2328.67 1278.48 2320.65 1288.45L2298.53 1316.1C2302.43 1336.91 2306.12 1354.92 2309.59 1370.09 2313.06 1385.26 2316.14 1397.9 2318.86 1407.98 2321.56 1418.06 2323.95 1426.03 2326.01 1431.88 2328.07 1437.74 2330.3 1442.13 2332.68 1445.06 2335.06 1447.98 2337.51 1450.04 2340 1451.24 2342.49 1452.43 2345.37 1453.03 2348.62 1453.03 2354.47 1453.03 2360.16 1450.75 2365.69 1446.19 2371.22 1441.65 2379.19 1431.34 2389.59 1415.3L2410.73 1429.28C2395.56 1451.83 2381.85 1467.72 2369.59 1476.93 2357.34 1486.15 2342.76 1490.76 2325.85 1490.76 2316.52 1490.76 2308.61 1489.07 2302.11 1485.72 2295.6 1482.35 2289.96 1476.98 2285.2 1469.62 2280.42 1462.24 2276.2 1450.75 2272.51 1435.14 2265.79 1407.38 2261.67 1386.14 2260.15 1371.4L2256.9 1371.4C2233.92 1403.7 2216.84 1426.9 2205.68 1440.99 2194.5 1455.08 2185.29 1465.49 2178.02 1472.21 2170.76 1478.94 2163.71 1483.65 2156.88 1486.37 2150.05 1489.07 2141 1490.43 2129.73 1490.43 2119.54 1490.43 2111.19 1489.12 2104.69 1486.53L2117.69 1427.66 2140.47 1427.66C2141.76 1436.76 2145.56 1441.32 2151.84 1441.32 2154.88 1441.32 2158.08 1440.51 2161.44 1438.88 2164.8 1437.25 2169.62 1433.35 2175.92 1427.17 2182.2 1420.99 2190.87 1411.29 2201.93 1398.06 2212.99 1384.83 2229.04 1365 2250.07 1338.54 2246.82 1321.41 2243.45 1304.93 2239.98 1289.11 2236.52 1273.28 2232.94 1258.53 2229.26 1244.87 2225.56 1231.21 2222.53 1222.27 2220.14 1218.04 2217.76 1213.82 2215.21 1210.88 2212.5 1209.26 2209.79 1207.63 2206.38 1206.82 2202.26 1206.82 2197.7 1206.82 2193.58 1207.85 2189.9 1209.91 2186.21 1211.96 2182.2 1215.54 2177.86 1220.65 2173.53 1225.74 2167.78 1233.7 2160.63 1244.54L2139.49 1230.56C2153.15 1209.97 2166.27 1194.57 2178.84 1184.37 2191.42 1174.19 2206.26 1169.09 2223.4 1169.09Z" stroke="#000000" stroke-width="22.0979" stroke-linejoin="round" stroke-miterlimit="10" fill="#FFC5C5" fill-rule="evenodd" transform="matrix(1.00155 0 0 1 614.444 306.75)"/></g></g></g><path d="M2957.49 1470.44C2952.38 1470.44 2948.24 1474.47 2948.24 1479.44L2948.24 1479.44C2948.24 1484.42 2952.38 1488.44 2957.49 1488.44L3167.98 1488.44C3173.1 1488.44 3177.24 1484.42 3177.24 1479.44L3177.24 1479.44C3177.24 1474.47 3173.1 1470.44 3167.98 1470.44Z" fill="#C00000" fill-rule="evenodd"/><path d="M1882.49 1695.44C1877.38 1695.44 1873.24 1699.47 1873.24 1704.44L1873.24 1704.44C1873.24 1709.42 1877.38 1713.44 1882.49 1713.44L2092.98 1713.44C2098.1 1713.44 2102.24 1709.42 2102.24 1704.44L2102.24 1704.44C2102.24 1699.47 2098.1 1695.44 2092.98 1695.44Z" fill="#C00000" fill-rule="evenodd"/><path d="M3035.45 1525.41C3030.36 1525.41 3026.24 1529.66 3026.24 1534.91L3026.24 1534.91C3026.24 1540.16 3030.36 1544.41 3035.45 1544.41L3245.03 1544.41C3250.12 1544.41 3254.24 1540.16 3254.24 1534.91L3254.24 1534.91C3254.24 1529.66 3250.12 1525.41 3245.03 1525.41Z" fill="#C00000" fill-rule="evenodd"/><path d="M1796.49 1633.41C1791.38 1633.41 1787.24 1637.66 1787.24 1642.91L1787.24 1642.91C1787.24 1648.16 1791.38 1652.41 1796.49 1652.41L2006.98 1652.41C2012.1 1652.41 2016.24 1648.16 2016.24 1642.91L2016.24 1642.91C2016.24 1637.66 2012.1 1633.41 2006.98 1633.41Z" fill="#C00000" fill-rule="evenodd"/><path d="M2109.49 1395.41C2104.38 1395.41 2100.24 1399.66 2100.24 1404.91L2100.24 1404.91C2100.24 1410.16 2104.38 1414.41 2109.49 1414.41L2319.98 1414.41C2325.1 1414.41 2329.24 1410.16 2329.24 1404.91L2329.24 1404.91C2329.24 1399.66 2325.1 1395.41 2319.98 1395.41Z" fill="#FFC5C5" fill-rule="evenodd"/><path d="M2180.45 1441.44C2175.36 1441.44 2171.24 1445.47 2171.24 1450.44L2171.24 1450.44C2171.24 1455.42 2175.36 1459.44 2180.45 1459.44L2390.03 1459.44C2395.12 1459.44 2399.24 1455.42 2399.24 1450.44L2399.24 1450.44C2399.24 1445.47 2395.12 1441.44 2390.03 1441.44Z" fill="#FFC5C5" fill-rule="evenodd"/><path d="M2647.49 1656.41C2642.38 1656.41 2638.24 1660.66 2638.24 1665.91L2638.24 1665.91C2638.24 1671.16 2642.38 1675.41 2647.49 1675.41L2857.98 1675.41C2863.1 1675.41 2867.24 1671.16 2867.24 1665.91L2867.24 1665.91C2867.24 1660.66 2863.1 1656.41 2857.98 1656.41Z" fill="#FFC5C5" fill-rule="evenodd"/><path d="M2717.49 1701.41C2712.38 1701.41 2708.24 1705.66 2708.24 1710.91L2708.24 1710.91C2708.24 1716.16 2712.38 1720.41 2717.49 1720.41L2927.98 1720.41C2933.1 1720.41 2937.24 1716.16 2937.24 1710.91L2937.24 1710.91C2937.24 1705.66 2933.1 1701.41 2927.98 1701.41Z" fill="#FFC5C5" fill-rule="evenodd"/><path d="M2383.41 1534.74C2405.4 1534.74 2423.24 1526.68 2423.24 1516.74L2423.24 1516.74C2423.24 1506.8 2405.4 1498.74 2383.41 1498.74L1865.07 1498.74C1843.07 1498.74 1825.24 1506.8 1825.24 1516.74L1825.24 1516.74C1825.24 1526.68 1843.07 1534.74 1865.07 1534.74Z" fill="#F2F2F2" fill-rule="evenodd"/><path d="M3147.34 1633.74C3169.37 1633.74 3187.24 1625.68 3187.24 1615.74L3187.24 1615.74C3187.24 1605.8 3169.37 1597.74 3147.34 1597.74L2628.13 1597.74C2606.1 1597.74 2588.24 1605.8 2588.24 1615.74L2588.24 1615.74C2588.24 1625.68 2606.1 1633.74 2628.13 1633.74Z" fill="#F2F2F2" fill-rule="evenodd"/></g></svg>