<svg width="911" height="595" xmlns="http://www.w3.org/2000/svg" xmlns:xlink="http://www.w3.org/1999/xlink" xml:space="preserve" overflow="hidden"><defs><clipPath id="clip0"><rect x="907" y="1127" width="911" height="595"/></clipPath></defs><g clip-path="url(#clip0)" transform="translate(-907 -1127)"><path d="M1669 1507.5C1669 1502.81 1672.81 1499 1677.5 1499L1809.5 1499C1814.19 1499 1818 1502.81 1818 1507.5L1818 1507.5C1818 1512.19 1814.19 1516 1809.5 1516L1677.5 1516C1672.81 1516 1669 1512.19 1669 1507.5Z" fill="#FFC5C5" fill-rule="evenodd"/><path d="M1628 1474.5C1628 1469.81 1631.81 1466 1636.5 1466L1768.5 1466C1773.19 1466 1777 1469.81 1777 1474.5L1777 1474.5C1777 1479.19 1773.19 1483 1768.5 1483L1636.5 1483C1631.81 1483 1628 1479.19 1628 1474.5Z" fill="#FFC5C5" fill-rule="evenodd"/><path d="M948 1373.5C948 1368.81 951.806 1365 956.5 1365L1088.5 1365C1093.19 1365 1097 1368.81 1097 1373.5L1097 1373.5C1097 1378.19 1093.19 1382 1088.5 1382L956.5 1382C951.806 1382 948 1378.19 948 1373.5Z" fill="#FFC5C5" fill-rule="evenodd"/><path d="M907 1340.5C907 1335.81 910.806 1332 915.5 1332L1047.5 1332C1052.19 1332 1056 1335.81 1056 1340.5L1056 1340.5C1056 1345.19 1052.19 1349 1047.5 1349L915.5 1349C910.806 1349 907 1345.19 907 1340.5Z" fill="#FFC5C5" fill-rule="evenodd"/><path d="M0 34.4999C0 15.4461 15.4461-4.62308e-15 34.4997-9.24617e-15L546.5 0C565.554-4.62308e-15 581 15.4461 581 34.4999L581 34.4999C581 53.5536 565.554 68.9997 546.5 68.9997L34.4997 68.9997C15.4461 68.9997-4.62307e-15 53.5536-9.24613e-15 34.4999Z" fill="#F2F2F2" fill-rule="evenodd" transform="matrix(-1 0 0 1 1554 1554)"/><path d="M0 8.00016C-2.37121e-15 3.58179 3.58178-1.18561e-15 8.00012 0L141 0C145.419-2.37123e-15 149 3.58179 149 8.00016L149 8.00016C149 12.4185 145.418 16.0003 141 16.0003L8.00012 16.0002C3.58178 16.0002-1.18561e-15 12.4184 0 8Z" fill="#D9D9D9" fill-rule="evenodd" transform="matrix(-1 0 0 1 1079 1579)"/><path d="M0 8.00008C-1.63916e-15 3.58176 3.58175-1.63916e-15 8.00007-3.27832e-15L198 0C202.418-1.63916e-15 206 3.58176 206 8.00008L206 8.00008C206 12.4184 202.418 16.0002 198 16.0002L8.00007 16.0002C3.58175 16.0002 0 12.4184 0 8.00008Z" fill="#D9D9D9" fill-rule="evenodd" transform="matrix(-1 0 0 1 1183 1612)"/><path d="M0 8.00016C-2.37121e-15 3.58179 3.58177-1.18561e-15 8.0001 0L141 0C145.418-2.37123e-15 149 3.58179 149 8.00016L149 8.00016C149 12.4185 145.418 16.0003 141 16.0003L8.0001 16.0002C3.58177 16.0002-1.1856e-15 12.4184 0 8Z" fill="#D9D9D9" fill-rule="evenodd" transform="matrix(-1 0 0 1 1119 1546)"/><path d="M1189 1261.5C1189 1242.45 1204.45 1227 1223.5 1227L1735.5 1227C1754.55 1227 1770 1242.45 1770 1261.5L1770 1261.5C1770 1280.55 1754.55 1296 1735.5 1296L1223.5 1296C1204.45 1296 1189 1280.55 1189 1261.5Z" fill="#F2F2F2" fill-rule="evenodd"/><path d="M1658 1260C1658 1255.58 1661.58 1252 1666 1252L1799 1252C1803.42 1252 1807 1255.58 1807 1260L1807 1260C1807 1264.42 1803.42 1268 1799 1268L1666 1268C1661.58 1268 1658 1264.42 1658 1260Z" fill="#D9D9D9" fill-rule="evenodd"/><path d="M1553 1293C1553 1288.58 1556.58 1285 1561 1285L1752 1285C1756.42 1285 1760 1288.58 1760 1293L1760 1293C1760 1297.42 1756.42 1301 1752 1301L1561 1301C1556.58 1301 1553 1297.42 1553 1293Z" fill="#D9D9D9" fill-rule="evenodd"/><path d="M1617 1227C1617 1222.58 1620.58 1219 1625 1219L1758 1219C1762.42 1219 1766 1222.58 1766 1227L1766 1227C1766 1231.42 1762.42 1235 1758 1235L1625 1235C1620.58 1235 1617 1231.42 1617 1227Z" fill="#D9D9D9" fill-rule="evenodd"/><path d="M1273.51 1132C1312.99 1132 1345 1164.01 1345 1203.49L1345 1333.51C1345 1373 1312.99 1405 1273.51 1405L1142.48 1405C1103 1405 1071 1373 1071 1333.51L1071 1203.49C1071 1164.01 1103 1132 1142.48 1132Z" stroke="#000000" stroke-width="10.3125" stroke-miterlimit="8" fill="#FFFFFF" fill-rule="evenodd"/><g><g><g><path d="M1245.81 1241.04C1242.04 1241.03 1238.29 1241.6 1234.69 1242.72 1249.36 1228.26 1249.54 1204.65 1235.08 1189.98 1220.63 1175.3 1197.01 1175.13 1182.34 1189.58 1167.67 1204.04 1167.49 1227.65 1181.95 1242.33 1182.08 1242.46 1182.21 1242.59 1182.34 1242.72 1162.68 1236.54 1141.74 1247.47 1135.56 1267.13 1129.39 1286.79 1140.32 1307.73 1159.98 1313.91 1173.77 1318.24 1188.83 1314.21 1198.62 1303.57 1197.27 1325.59 1193.24 1345.73 1183.65 1352.92L1233.38 1352.92C1223.79 1345.73 1219.76 1325.59 1218.41 1303.57 1232.36 1318.72 1255.95 1319.68 1271.09 1305.73 1286.23 1291.79 1287.2 1268.2 1273.25 1253.06 1266.19 1245.39 1256.24 1241.03 1245.81 1241.04Z" stroke="#000000" stroke-width="10.1912" fill="#D9D9D9"/></g></g></g><path d="M1537.32 1199C1566.97 1199 1591 1223.03 1591 1252.68L1591 1351.32C1591 1380.97 1566.97 1405 1537.32 1405L1439.68 1405C1410.03 1405 1386 1380.97 1386 1351.32L1386 1252.68C1386 1223.03 1410.03 1199 1439.68 1199Z" stroke="#000000" stroke-width="10.3125" stroke-miterlimit="8" fill="#FFC5C5" fill-rule="evenodd"/><path d="M1590.99 1442C1630.76 1442 1663 1474.24 1663 1514.01L1663 1644.99C1663 1684.76 1630.76 1717 1590.99 1717L1460.01 1717C1420.24 1717 1388 1684.76 1388 1644.99L1388 1514.01C1388 1474.24 1420.24 1442 1460.01 1442Z" stroke="#000000" stroke-width="10.3125" stroke-miterlimit="8" fill="#FFFFFF" fill-rule="evenodd"/><g><g><g><path d="M132.923 161.317C161.271 193.986 199.062 164.354 199.062 136.444 199.062 89.1646 122.5 30.625 122.5 30.625 122.5 30.625 45.9528 89.1646 45.9528 136.444 45.9528 164.336 83.6725 193.94 112.016 161.396L112.016 162.034C110.584 185.391 106.309 206.749 96.142 214.375L148.886 214.375C138.716 206.749 134.444 185.391 133.012 162.034Z" stroke="#000000" stroke-width="10.3521" fill="#D9D9D9" transform="matrix(1 0 0 1 1403 1457)"/></g></g></g><path d="M1290.32 1443C1319.97 1443 1344 1467.03 1344 1496.68L1344 1595.32C1344 1624.97 1319.97 1649 1290.32 1649L1192.68 1649C1163.03 1649 1139 1624.97 1139 1595.32L1139 1496.68C1139 1467.03 1163.03 1443 1192.68 1443Z" stroke="#000000" stroke-width="10.3125" stroke-miterlimit="8" fill="#FFC5C5" fill-rule="evenodd"/><path d="M1432 1302 1489 1238 1546 1302 1489 1366Z" stroke="#000000" stroke-width="10.3125" stroke-miterlimit="8" fill="#C00000" fill-rule="evenodd"/><g><g><g><path d="M90.9999 55.3583C67.1124 7.96249 26.5416 36.4 26.5416 62.9416 26.5416 102.754 90.9999 152.046 90.9999 152.046 90.9999 152.046 155.458 102.754 155.458 62.9416 155.458 36.4 114.887 7.96249 90.9999 55.3583Z" stroke="#000000" stroke-width="10.5" fill="#C00000" transform="matrix(1 0 0 1 1150 1455)"/></g></g></g></g></svg>