<svg width="1152" height="695" xmlns="http://www.w3.org/2000/svg" xmlns:xlink="http://www.w3.org/1999/xlink" xml:space="preserve" overflow="hidden"><defs><clipPath id="clip0"><rect x="1509" y="503" width="1152" height="695"/></clipPath></defs><g clip-path="url(#clip0)" transform="translate(-1509 -503)"><path d="M1517.19 927.078C1511 913.418 1517.05 897.324 1530.71 891.13L2211.44 582.468C2225.1 576.274 2241.2 582.326 2247.39 595.986L2247.39 595.986C2253.58 609.646 2247.53 625.74 2233.87 631.933L1553.14 940.596C1539.48 946.79 1523.39 940.737 1517.19 927.078Z" stroke="#000000" stroke-width="10.3125" stroke-miterlimit="8" fill="#FFFFFF" fill-rule="evenodd"/><path d="M1834.9 1026.85C1828.71 1013.19 1834.76 997.093 1848.42 990.899L2529.15 682.236C2542.81 676.043 2558.9 682.095 2565.1 695.755L2565.1 695.755C2571.29 709.414 2565.24 725.508 2551.58 731.702L1870.85 1040.36C1857.19 1046.56 1841.1 1040.51 1834.9 1026.85Z" stroke="#000000" stroke-width="10.3125" stroke-miterlimit="8" fill="#FFFFFF" fill-rule="evenodd"/><path d="M1520.03 708.819C1522.2 693.979 1536 683.712 1550.84 685.887L2631.95 844.346C2646.79 846.521 2657.06 860.314 2654.88 875.154L2654.88 875.154C2652.71 889.994 2638.91 900.261 2624.07 898.086L1542.96 739.626C1528.12 737.451 1517.85 723.658 1520.03 708.818Z" stroke="#000000" stroke-width="10.3125" stroke-miterlimit="8" fill="#C00000" fill-rule="evenodd"/><path d="M1832 761.5C1832 733.057 1855.06 710 1883.5 710 1911.94 710 1935 733.057 1935 761.5 1935 789.943 1911.94 813 1883.5 813 1855.06 813 1832 789.943 1832 761.5Z" stroke="#000000" stroke-width="13.75" stroke-miterlimit="8" fill="#FFC5C5" fill-rule="evenodd"/><path d="M2214 829.5C2214 801.057 2237.06 778 2265.5 778 2293.94 778 2317 801.057 2317 829.5 2317 857.943 2293.94 881 2265.5 881 2237.06 881 2214 857.943 2214 829.5Z" stroke="#000000" stroke-width="13.75" stroke-miterlimit="8" fill="#FFC5C5" fill-rule="evenodd"/><path d="M0 8.25001C-2.78544e-15 3.69366 3.69362 0 8.24994 0L341.808 0C346.364-2.78546e-15 350.058 3.69366 350.058 8.25001L350.058 8.25001C350.058 12.8064 346.364 16.5 341.808 16.5L8.24994 16.4996C3.69362 16.4996 0 12.806 0 8.24963Z" fill="#D9D9D9" fill-rule="evenodd" transform="matrix(0.910749 -0.41296 -0.41296 -0.910749 1964.71 664.389)"/><path d="M0 8.25001C-2.78544e-15 3.69366 3.69362 0 8.24994 0L341.808 0C346.364-2.78546e-15 350.058 3.69366 350.058 8.25001L350.058 8.25001C350.058 12.8064 346.364 16.5 341.808 16.5L8.24994 16.4996C3.69362 16.4996 0 12.806 0 8.24963Z" fill="#D9D9D9" fill-rule="evenodd" transform="matrix(0.910749 -0.41296 -0.41296 -0.910749 1894.93 660.67)"/><path d="M0 8.25001C-2.78544e-15 3.69366 3.69362 0 8.24994 0L341.808 0C346.364-2.78546e-15 350.058 3.69366 350.058 8.25001L350.058 8.25001C350.058 12.8064 346.364 16.5 341.808 16.5L8.24994 16.4996C3.69362 16.4996 0 12.806 0 8.24963Z" fill="#D9D9D9" fill-rule="evenodd" transform="matrix(0.910749 -0.41296 -0.41296 -0.910749 1768.64 1134.98)"/><path d="M0 8.25001C-2.78544e-15 3.69366 3.69362 0 8.24994 0L341.808 0C346.364-2.78546e-15 350.058 3.69366 350.058 8.25001L350.058 8.25001C350.058 12.8064 346.364 16.5 341.808 16.5L8.24994 16.4996C3.69362 16.4996 0 12.806 0 8.24963Z" fill="#D9D9D9" fill-rule="evenodd" transform="matrix(0.910749 -0.41296 -0.41296 -0.910749 1714.02 1200.07)"/></g></svg>