<svg width="300" height="296" xmlns="http://www.w3.org/2000/svg" xmlns:xlink="http://www.w3.org/1999/xlink" xml:space="preserve" overflow="hidden"><g transform="translate(-907 -478)"><path d="M922.5 705 951.75 646.5 1029.25 646.5 1058.5 705 1029.25 763.5 951.75 763.5Z" stroke="#000000" stroke-width="20.625" stroke-miterlimit="8" fill="none" fill-rule="evenodd"/><path d="M1058.5 625 1087.75 566.5 1165.25 566.5 1194.5 625 1165.25 683.5 1087.75 683.5Z" stroke="#000000" stroke-width="20.625" stroke-miterlimit="8" fill="none" fill-rule="evenodd"/><path d="M919.5 547.5 949 488.5 1026 488.5 1055.5 547.5 1026 606.5 949 606.5Z" stroke="#000000" stroke-width="20.625" stroke-miterlimit="8" fill="none" fill-rule="evenodd"/></g></svg>
<svg width="300" height="296" xmlns="http://www.w3.org/2000/svg" xmlns:xlink="http://www.w3.org/1999/xlink" xml:space="preserve" overflow="hidden"><g transform="translate(-907 -478)"><path d="M922.5 705 951.75 646.5 1029.25 646.5 1058.5 705 1029.25 763.5 951.75 763.5Z" stroke="#000000" stroke-width="20.625" stroke-miterlimit="8" fill="none" fill-rule="evenodd"/><path d="M1058.5 625 1087.75 566.5 1165.25 566.5 1194.5 625 1165.25 683.5 1087.75 683.5Z" stroke="#000000" stroke-width="20.625" stroke-miterlimit="8" fill="none" fill-rule="evenodd"/><path d="M919.5 547.5 949 488.5 1026 488.5 1055.5 547.5 1026 606.5 949 606.5Z" stroke="#000000" stroke-width="20.625" stroke-miterlimit="8" fill="none" fill-rule="evenodd"/></g></svg>
