<svg width="1484" height="1573" xmlns="http://www.w3.org/2000/svg" xmlns:xlink="http://www.w3.org/1999/xlink" xml:space="preserve" overflow="hidden"><g transform="translate(515 -939)"><path d="M-466.634 1349.62C-466.634 1149.56-304.523 987.385-104.548 987.385L559.276 987.385C759.252 987.385 921.366 1149.56 921.366 1349.62L921.366 2017.15C921.366 2217.21 759.252 2379.39 559.276 2379.39L-104.548 2379.39C-304.523 2379.39-466.634 2217.21-466.634 2017.15Z" stroke="#D9D9D9" stroke-width="94.5314" stroke-miterlimit="8" fill="none" fill-rule="evenodd"/><path d="M140.862 1357.89C154.844 1357.89 167.138 1359.46 177.74 1362.62 188.342 1365.78 197.703 1370.63 205.822 1377.16 213.945 1383.7 221.163 1392.16 227.477 1402.53 233.794 1412.9 239.885 1426.99 245.748 1444.81 251.615 1462.62 257.141 1484.72 262.327 1511.1 267.516 1537.48 272.141 1564.88 276.199 1593.28L282.967 1593.28C326.277 1532.41 359.094 1487.87 381.426 1459.69 403.759 1431.51 422.593 1410.54 437.931 1396.78 453.268 1383.02 468.045 1373.33 482.255 1367.69 496.465 1362.06 515.299 1359.24 538.76 1359.24 559.96 1359.24 577.33 1361.94 590.866 1367.36L563.798 1489.79 516.427 1489.79C513.721 1470.85 505.825 1461.38 492.744 1461.38 488.682 1461.38 484.397 1462.05 479.885 1463.41 475.374 1464.76 469.848 1467.69 463.307 1472.2 456.766 1476.71 447.178 1485.51 434.547 1498.58 421.916 1511.66 407.707 1527.67 391.915 1546.61 376.127 1565.55 359.885 1585.4 343.193 1606.14L297.177 1663.64C305.3 1706.93 312.968 1744.36 320.186 1775.92 327.405 1807.49 333.832 1833.76 339.472 1854.73 345.111 1875.7 350.074 1892.27 354.359 1904.45 358.644 1916.62 363.269 1925.76 368.231 1931.84 373.194 1937.93 378.27 1942.22 383.455 1944.7 388.644 1947.18 394.621 1948.42 401.389 1948.42 413.57 1948.42 425.413 1943.68 436.917 1934.21 448.42 1924.74 464.999 1903.32 486.653 1869.95L530.64 1899.04C499.061 1945.94 470.525 1978.97 445.036 1998.14 419.547 2017.3 389.208 2026.89 354.022 2026.89 334.623 2026.89 318.154 2023.39 304.622 2016.4 291.086 2009.41 279.36 1998.25 269.432 1982.92 259.507 1967.58 250.71 1943.68 243.042 1911.21 229.056 1853.49 220.486 1809.3 217.329 1778.63L210.561 1778.63C162.74 1845.82 127.213 1894.08 103.979 1923.39 80.746 1952.7 61.5741 1974.35 46.4603 1988.33 31.3497 2002.31 16.6861 2012.11 2.47661 2017.75-11.7364 2023.39-30.5711 2026.21-54.0279 2026.21-75.2321 2026.21-92.5988 2023.5-106.134 2018.09L-79.0667 1895.66-31.6958 1895.66C-28.9894 1914.6-21.0971 1924.06-8.01194 1924.06-1.69808 1924.06 4.95587 1922.37 11.9507 1918.99 18.9422 1915.61 28.9802 1907.49 42.0621 1894.64 55.1469 1881.79 73.1905 1861.61 96.1971 1834.1 119.207 1806.59 152.592 1765.33 196.352 1710.31 189.584 1674.68 182.589 1640.41 175.371 1607.49 168.153 1574.57 160.711 1543.91 153.042 1515.5 145.374 1487.08 139.056 1468.48 134.094 1459.69 129.131 1450.9 123.832 1444.81 118.192 1441.43 112.552 1438.04 105.448 1436.35 96.8744 1436.35 87.4003 1436.35 78.8303 1438.49 71.1619 1442.78 63.493 1447.06 55.1469 1454.5 46.1231 1465.1 37.0996 1475.7 25.1459 1492.27 10.2588 1514.82L-33.7281 1485.73C-5.3056 1442.89 21.989 1410.87 48.1521 1389.68 74.3188 1368.48 105.221 1357.89 140.862 1357.89Z" fill="#D9D9D9" fill-rule="evenodd"/><text fill="#000000" fill-opacity="0" font-family="Cambria Math,Cambria Math_MSFontService,sans-serif" font-weight="400" font-size="670" transform="matrix(1 0 0 1 -106.151 1958)">ЁЭСе</text></g></svg>