<svg width="2481" height="2487" xmlns="http://www.w3.org/2000/svg" xmlns:xlink="http://www.w3.org/1999/xlink" xml:space="preserve" overflow="hidden"><g transform="translate(256 -93)"><path d="M-176.333 778.661C-176.333 444.084 94.8637 172.858 429.399 172.858L1539.94 172.858C1874.44 172.858 2145.67 444.084 2145.67 778.661L2145.67 1895.05C2145.67 2229.63 1874.44 2500.86 1539.94 2500.86L429.399 2500.86C94.8637 2500.86-176.333 2229.63-176.333 1895.05Z" stroke="#D9D9D9" stroke-width="157.99" stroke-miterlimit="8" fill="none" fill-rule="evenodd"/><path d="M1019.64 1028.5 1074.36 1028.5 940.805 1622.96C927.225 1683.46 920.434 1729.14 920.434 1760 920.434 1784.7 924.462 1802.6 932.461 1813.71 940.517 1824.82 953.176 1830.37 970.496 1830.37 989.026 1830.37 1008.82 1822.81 1029.82 1807.69 1050.83 1792.56 1080.52 1763.7 1118.84 1721.11L1171.67 1772.97C1111.13 1836.55 1061.99 1879.76 1024.24 1902.6 986.551 1925.44 944.199 1936.86 897.244 1936.86 857.08 1936.86 824.914 1922.2 800.803 1892.87 776.693 1863.56 764.666 1826.05 764.666 1780.37 764.666 1733.46 773.298 1673.58 790.617 1600.74L860.13 1297.95C874.343 1236.22 881.478 1189.92 881.478 1159.06 881.478 1131.28 874.86 1112.45 861.568 1102.58 848.275 1092.7 822.152 1087.14 783.195 1085.91L793.38 1036.83ZM994.607 673.858 1158.72 673.858 1116.08 853.494 951.968 853.494Z" fill="#D9D9D9" fill-rule="evenodd"/><text fill="#000000" fill-opacity="0" font-family="Cambria Math,Cambria Math_MSFontService,sans-serif" font-weight="400" font-size="948" transform="matrix(1 0 0 1 765.325 1500)">𝑖</text></g></svg>