<svg width="434" height="432" xmlns="http://www.w3.org/2000/svg" xmlns:xlink="http://www.w3.org/1999/xlink" xml:space="preserve" overflow="hidden"><g transform="translate(61 -89)"><path d="M3580 499.391C3580 441.185 3627.19 394 3685.39 394L3878.61 394C3936.81 394 3984 441.185 3984 499.391L3984 692.608C3984 750.814 3936.81 797.999 3878.61 797.999L3685.39 797.999C3627.19 797.999 3580 750.814 3580 692.608Z" stroke="#D9D9D9" stroke-width="27.5" stroke-miterlimit="8" fill="none" fill-rule="evenodd" transform="matrix(1.00013 0 0 1 -3626.02 -291)"/><path d="M3716.98 564.834C3708.74 564.834 3701.35 568.164 3694.82 574.824 3688.28 581.485 3683.13 590.466 3679.38 601.768 3675.62 613.07 3673.74 624.332 3673.74 635.553 3673.74 643.949 3674.9 650.226 3677.2 654.383 3679.5 658.541 3683.35 660.619 3688.76 660.619 3691.26 660.619 3693.81 660.074 3696.39 658.985 3698.97 657.895 3701.66 656.139 3704.44 653.717 3707.23 651.295 3709.97 648.349 3712.68 644.877 3715.38 641.406 3717.86 637.914 3720.12 634.403 3722.38 630.891 3724.48 626.733 3726.42 621.93 3728.36 617.127 3730.01 611.334 3731.39 604.553L3732.48 599.346C3733.69 593.533 3734.29 588.044 3734.29 582.877 3734.29 576.58 3732.96 571.999 3730.3 569.133 3727.63 566.267 3723.19 564.834 3716.98 564.834ZM3830.43 555.268C3832.93 555.268 3835.13 555.55 3837.03 556.115 3838.93 556.681 3840.6 557.548 3842.05 558.719 3843.51 559.89 3844.8 561.403 3845.93 563.26 3847.06 565.117 3848.15 567.64 3849.2 570.828 3850.25 574.017 3851.24 577.973 3852.16 582.696 3853.09 587.418 3853.92 592.323 3854.65 597.408L3855.86 597.408C3863.61 586.51 3869.48 578.538 3873.48 573.492 3877.47 568.447 3880.84 564.693 3883.59 562.231 3886.33 559.768 3888.98 558.033 3891.52 557.024 3894.06 556.015 3897.43 555.51 3901.63 555.51 3905.43 555.51 3908.53 555.994 3910.96 556.963L3906.11 578.881 3897.64 578.881C3897.15 575.49 3895.74 573.795 3893.4 573.795 3892.67 573.795 3891.9 573.916 3891.1 574.158 3890.29 574.401 3889.3 574.925 3888.13 575.733 3886.96 576.54 3885.24 578.114 3882.98 580.455 3880.72 582.796 3878.18 585.662 3875.35 589.053 3872.53 592.444 3869.62 595.996 3866.64 599.709L3858.4 610.002C3859.85 617.752 3861.23 624.453 3862.52 630.104 3863.81 635.755 3864.96 640.457 3865.97 644.211 3866.98 647.965 3867.87 650.932 3868.63 653.112 3869.4 655.291 3870.23 656.926 3871.12 658.016 3872 659.106 3872.91 659.873 3873.84 660.317 3874.77 660.761 3875.84 660.983 3877.05 660.983 3879.23 660.983 3881.35 660.135 3883.41 658.44 3885.47 656.744 3888.43 652.91 3892.31 646.936L3900.18 652.143C3894.53 660.539 3889.42 666.452 3884.86 669.883 3880.3 673.314 3874.87 675.03 3868.57 675.03 3865.1 675.03 3862.16 674.404 3859.73 673.153 3857.31 671.901 3855.21 669.903 3853.44 667.158 3851.66 664.414 3850.09 660.135 3848.71 654.323 3846.21 643.989 3844.68 636.078 3844.11 630.588L3842.9 630.588C3834.34 642.617 3827.99 651.255 3823.83 656.502 3819.67 661.75 3816.24 665.625 3813.54 668.127 3810.83 670.63 3808.21 672.386 3805.66 673.395 3803.12 674.404 3799.75 674.908 3795.55 674.908 3791.76 674.908 3788.65 674.424 3786.23 673.455L3791.07 651.537 3799.55 651.537C3800.03 654.928 3801.45 656.623 3803.79 656.623 3804.92 656.623 3806.11 656.321 3807.36 655.715 3808.61 655.11 3810.41 653.656 3812.75 651.356 3815.09 649.055 3818.32 645.442 3822.44 640.518 3826.55 635.593 3832.53 628.207 3840.36 618.358 3839.15 611.98 3837.9 605.845 3836.6 599.951 3835.31 594.058 3833.98 588.569 3832.61 583.483 3831.24 578.397 3830.11 575.067 3829.22 573.492 3828.33 571.918 3827.38 570.828 3826.37 570.223 3825.36 569.617 3824.09 569.315 3822.56 569.315 3820.86 569.315 3819.33 569.698 3817.96 570.465 3816.58 571.232 3815.09 572.564 3813.48 574.461 3811.86 576.358 3809.72 579.325 3807.06 583.362L3799.19 578.155C3804.27 570.485 3809.16 564.753 3813.84 560.959 3818.52 557.165 3824.05 555.268 3830.43 555.268ZM3767.71 499.928 3774.86 499.928 3744.71 633.979C3742.93 641.89 3742.04 647.864 3742.04 651.901 3742.04 655.13 3742.57 657.471 3743.62 658.924 3744.67 660.377 3746.32 661.104 3748.58 661.104 3751 661.104 3753.59 660.115 3756.33 658.137 3759.08 656.159 3762.95 652.385 3767.96 646.815L3774.86 653.596C3767.43 661.427 3761.17 666.957 3756.09 670.186 3751 673.415 3745.51 675.03 3739.62 675.03 3734.61 675.03 3730.62 673.375 3727.63 670.065 3724.64 666.755 3723.15 662.355 3723.15 656.865 3723.15 652.425 3724.08 647.703 3725.94 642.698L3724.36 642.213C3716.61 653.515 3709.27 661.79 3702.32 667.037 3695.38 672.285 3688.03 674.908 3680.28 674.908 3671.4 674.908 3664.52 671.558 3659.64 664.858 3654.75 658.157 3652.31 648.752 3652.31 636.643 3652.31 622.757 3655.04 609.417 3660.49 596.621 3665.93 583.826 3673.42 573.735 3682.95 566.348 3692.47 558.961 3703.09 555.268 3714.8 555.268 3719.72 555.268 3724.26 555.772 3728.42 556.781 3732.58 557.791 3736.83 559.546 3741.19 562.049L3747.49 534.076C3748.14 531.412 3748.7 528.466 3749.19 525.237 3749.67 522.007 3749.91 519.182 3749.91 516.76 3749.91 514.338 3749.47 512.502 3748.58 511.25 3747.69 509.999 3746.42 509.091 3744.77 508.526 3743.11 507.961 3740.14 507.557 3735.87 507.315L3737.32 501.018Z" fill="#D9D9D9" fill-rule="evenodd" transform="matrix(1.00013 0 0 1 -3626.02 -291)"/></g></svg>