<svg width="1597" height="1739" xmlns="http://www.w3.org/2000/svg" xmlns:xlink="http://www.w3.org/1999/xlink" xml:space="preserve" overflow="hidden"><g transform="translate(263 -272)"><path d="M-106.423 683.751C-106.423 483.056 56.149 320.361 256.699 320.361L922.455 320.361C1123.01 320.361 1285.58 483.056 1285.58 683.751L1285.58 1349.97C1285.58 1550.66 1123.01 1713.36 922.455 1713.36L256.699 1713.36C56.149 1713.36-106.423 1550.66-106.423 1349.97Z" stroke="#D9D9D9" stroke-width="94.5314" stroke-miterlimit="8" fill="none" fill-rule="evenodd"/><path d="M645.316 640.861C678.901 640.861 709.839 642.615 738.062 646.122 766.318 649.632 797.978 656.19 833.077 665.793L833.077 791.561 778.247 791.561C769 766.075 757.656 745.85 744.181 730.893 730.705 715.932 714.996 705.314 697.086 699.036 679.176 692.754 657.657 689.614 632.562 689.614 601.555 689.614 572.92 698.111 546.692 715.1 520.497 732.093 498.497 757.3 480.793 790.729 463.055 824.157 450.886 864.511 444.217 911.789L780.447 911.789 780.447 964.975 439.782 964.975C437.961 980.857 437.032 1001.18 437.032 1025.92L437.032 1043.1C437.032 1049.38 437.204 1055.47 437.583 1061.38L741.121 1061.38 741.121 1114.57 439.782 1114.57C443.117 1151.14 449.029 1184.84 457.521 1215.68 466.012 1246.52 477.458 1273.03 491.862 1295.19 506.266 1317.35 524.003 1334.71 545.042 1347.27 566.079 1359.82 590.83 1366.11 619.258 1366.11 649.166 1366.11 673.745 1362.88 692.927 1356.41 712.142 1349.95 728.093 1339.6 740.846 1325.38 753.599 1311.16 766.044 1290.02 778.247 1261.95L833.077 1261.95 833.077 1387.16C799.835 1396.03 765.219 1402.86 729.227 1407.66 693.201 1412.46 653.429 1414.86 609.84 1414.86 527.51 1414.86 463.158 1389.56 416.82 1338.96 370.481 1288.35 342.499 1213.56 332.909 1114.57L201.077 1114.57 201.077 1061.38 329.573 1061.38 329.573 1034.23C329.573 1011.7 330.674 988.614 332.909 964.975L240.403 964.975 240.403 911.789 340.643 911.789C358.381 824.25 393.822 757.211 447.002 710.668 500.181 664.129 566.286 640.861 645.316 640.861Z" fill="#D9D9D9" fill-rule="evenodd"/><text fill="#000000" fill-opacity="0" font-family="Arial,Arial_MSFontService,sans-serif" font-weight="400" font-size="774" transform="matrix(1 0 0 1 202.109 1370)">€</text></g></svg>