<svg width="432" height="433" xmlns="http://www.w3.org/2000/svg" xmlns:xlink="http://www.w3.org/1999/xlink" xml:space="preserve" overflow="hidden"><g transform="translate(-923 -1048)"><path d="M937 1167.39C937 1109.19 984.185 1062 1042.39 1062L1235.61 1062C1293.81 1062 1341 1109.19 1341 1167.39L1341 1361.61C1341 1419.81 1293.81 1467 1235.61 1467L1042.39 1467C984.185 1467 937 1419.81 937 1361.61Z" stroke="#D9D9D9" stroke-width="27.5" stroke-miterlimit="8" fill="none" fill-rule="evenodd"/><path d="M989 1264C989 1223.68 1021.68 1191 1062 1191 1102.32 1191 1135 1223.68 1135 1264 1135 1304.32 1102.32 1337 1062 1337 1021.68 1337 989 1304.32 989 1264Z" fill="#D9D9D9" fill-rule="evenodd"/><path d="M1135 1338 1208 1194 1281 1338Z" fill="#D9D9D9" fill-rule="evenodd"/></g></svg>