<svg width="431" height="433" xmlns="http://www.w3.org/2000/svg" xmlns:xlink="http://www.w3.org/1999/xlink" xml:space="preserve" overflow="hidden"><defs><clipPath id="clip0"><rect x="-94" y="331" width="431" height="433"/></clipPath></defs><g clip-path="url(#clip0)" transform="translate(94 -331)"><path d="M3148.79 231.38C3151.61 231.38 3154.74 231.762 3158.16 232.528 3161.59 233.293 3164.51 234.24 3166.93 235.368L3165.48 258.817 3153.02 258.817C3152.38 255.272 3151.1 252.351 3149.16 250.054 3147.22 247.758 3144.65 246.61 3141.42 246.61 3132.8 246.61 3127.14 253.6 3124.43 267.58 3121.74 281.561 3120.39 313.612 3120.39 363.734 3120.39 405.313 3116.58 438.311 3108.96 462.727 3101.35 487.143 3087.91 499.351 3068.66 499.351 3064.78 499.351 3061.4 499.029 3058.51 498.384 3055.6 497.739 3052.79 496.692 3050.04 495.242L3051.61 471.43 3062.98 471.43C3064.03 475.297 3065.57 478.481 3067.63 480.978 3069.69 483.476 3072.6 484.725 3076.39 484.725 3084.86 484.725 3090.17 475.962 3092.34 458.435 3094.52 440.91 3095.61 415.346 3095.61 381.744 3095.61 329.366 3099.58 291.211 3107.52 267.279 3115.45 243.346 3129.22 231.38 3148.79 231.38Z" fill="#D9D9D9" fill-rule="evenodd" transform="matrix(1 0 0 1.00184 -2995.65 186)"/><path d="M3230.69 318.481C3233.18 318.481 3235.38 318.764 3237.28 319.328 3239.16 319.892 3240.84 320.758 3242.29 321.926 3243.73 323.095 3245.03 324.606 3246.16 326.459 3247.29 328.312 3248.38 330.831 3249.42 334.014 3250.46 337.196 3251.45 341.145 3252.38 345.859 3253.31 350.573 3254.14 355.468 3254.85 360.545L3256.07 360.545C3263.81 349.666 3269.67 341.709 3273.65 336.673 3277.64 331.636 3281.01 327.889 3283.75 325.432 3286.49 322.974 3289.12 321.241 3291.67 320.234 3294.2 319.227 3297.57 318.723 3301.76 318.723 3305.54 318.723 3308.65 319.207 3311.06 320.173L3306.23 342.051 3297.77 342.051C3297.29 338.667 3295.88 336.974 3293.53 336.974 3292.81 336.974 3292.05 337.096 3291.24 337.338 3290.44 337.579 3289.45 338.103 3288.28 338.909 3287.11 339.714 3285.4 341.285 3283.14 343.623 3280.89 345.96 3278.35 348.82 3275.53 352.204 3272.71 355.589 3269.81 359.134 3266.82 362.842L3258.61 373.115C3260.05 380.85 3261.42 387.539 3262.72 393.18 3264.01 398.82 3265.16 403.515 3266.16 407.261 3267.17 411.008 3268.05 413.969 3268.82 416.145 3269.59 418.321 3270.42 419.952 3271.29 421.04 3272.18 422.128 3273.09 422.894 3274.02 423.337 3274.95 423.78 3276.02 424.002 3277.22 424.002 3279.4 424.002 3281.52 423.155 3283.56 421.464 3285.62 419.772 3288.58 415.944 3292.44 409.981L3300.31 415.178C3294.66 423.559 3289.57 429.461 3285.02 432.886 3280.47 436.31 3275.05 438.023 3268.76 438.023 3265.29 438.023 3262.35 437.398 3259.93 436.15 3257.52 434.901 3255.42 432.907 3253.65 430.167 3251.88 427.427 3250.3 423.155 3248.94 417.354 3246.44 407.039 3244.9 399.143 3244.34 393.663L3243.14 393.663C3234.59 405.67 3228.24 414.292 3224.1 419.529 3219.95 424.768 3216.52 428.635 3213.82 431.133 3211.12 433.631 3208.51 435.384 3205.96 436.391 3203.43 437.398 3200.06 437.902 3195.87 437.902 3192.09 437.902 3188.99 437.418 3186.57 436.452L3191.4 414.574 3199.87 414.574C3200.34 417.958 3201.75 419.651 3204.1 419.651 3205.23 419.651 3206.41 419.349 3207.66 418.744 3208.91 418.14 3210.7 416.689 3213.04 414.393 3215.38 412.096 3218.6 408.491 3222.7 403.575 3226.82 398.66 3232.77 391.286 3240.6 381.455 3239.38 375.089 3238.14 368.965 3236.85 363.083 3235.56 357.2 3234.23 351.721 3232.86 346.644 3231.49 341.568 3230.36 338.244 3229.47 336.673 3228.59 335.102 3227.64 334.014 3226.64 333.409 3225.63 332.805 3224.36 332.502 3222.82 332.502 3221.14 332.502 3219.61 332.885 3218.23 333.65 3216.86 334.416 3215.38 335.746 3213.76 337.639 3212.15 339.534 3210.02 342.494 3207.35 346.524L3199.5 341.326C3204.58 333.671 3209.45 327.95 3214.13 324.163 3218.8 320.375 3224.32 318.481 3230.69 318.481Z" fill="#FFFFFF" fill-rule="evenodd" transform="matrix(1 0 0 1.00184 -2995.65 186)"/><text fill="#FFFFFF" font-family="Aptos,Aptos_MSFontService,sans-serif" font-weight="400" font-size="147" transform="matrix(0.998161 0 0 1 326.296 623)">r</text><path d="M2915.63 263.905C2915.63 205.806 2962.73 158.708 3020.83 158.708L3213.69 158.708C3271.78 158.708 3318.89 205.806 3318.89 263.905L3318.89 457.766C3318.89 515.865 3271.78 562.963 3213.69 562.963L3020.83 562.963C2962.73 562.963 2915.63 515.865 2915.63 457.766Z" stroke="#D9D9D9" stroke-width="27.4494" stroke-miterlimit="8" fill="none" fill-rule="evenodd" transform="matrix(1 0 0 1.00184 -2995.65 186)"/></g></svg>