<svg width="432" height="432" xmlns="http://www.w3.org/2000/svg" xmlns:xlink="http://www.w3.org/1999/xlink" xml:space="preserve" overflow="hidden"><g transform="translate(-3126 -1048)"><path d="M3140 1167.39C3140 1109.19 3187.19 1062 3245.39 1062L3438.61 1062C3496.81 1062 3544 1109.19 3544 1167.39L3544 1360.61C3544 1418.81 3496.81 1466 3438.61 1466L3245.39 1466C3187.19 1466 3140 1418.81 3140 1360.61Z" stroke="#D9D9D9" stroke-width="27.5" stroke-miterlimit="8" fill="none" fill-rule="evenodd"/><g><g><g><path d="M3395.3 1220.05C3389.91 1220.04 3384.56 1220.86 3379.41 1222.46 3400.38 1201.81 3400.63 1168.07 3379.98 1147.11 3359.32 1126.15 3325.59 1125.89 3304.63 1146.55 3283.67 1167.2 3283.41 1200.93 3304.06 1221.89 3304.25 1222.08 3304.44 1222.27 3304.63 1222.46 3276.54 1213.64 3246.63 1229.25 3237.81 1257.33 3228.98 1285.42 3244.6 1315.33 3272.68 1324.15 3292.39 1330.34 3313.89 1324.59 3327.88 1309.39 3325.95 1340.85 3320.2 1369.62 3306.5 1379.89L3377.54 1379.89C3363.85 1369.62 3358.09 1340.85 3356.16 1309.39 3376.09 1331.02 3409.78 1332.41 3431.42 1312.48 3453.05 1292.55 3454.43 1258.86 3434.5 1237.22 3424.41 1226.27 3410.2 1220.04 3395.3 1220.05Z" fill="#D9D9D9"/></g></g></g></g></svg>