<svg width="433" height="433" xmlns="http://www.w3.org/2000/svg" xmlns:xlink="http://www.w3.org/1999/xlink" xml:space="preserve" overflow="hidden"><g transform="translate(-1473 -413)"><path d="M1487 532.652C1487 474.302 1534.3 427 1592.65 427L1786.35 427C1844.7 427 1892 474.302 1892 532.652L1892 726.347C1892 784.697 1844.7 831.999 1786.35 831.999L1592.65 831.999C1534.3 831.999 1487 784.697 1487 726.347Z" stroke="#D9D9D9" stroke-width="27.5" stroke-miterlimit="8" fill="none" fill-rule="evenodd"/><path d="M1582 698C1582 683.088 1594.09 671 1609 671 1623.91 671 1636 683.088 1636 698 1636 712.912 1623.91 725 1609 725 1594.09 725 1582 712.912 1582 698Z" fill="#D9D9D9" fill-rule="evenodd"/><path d="M1663 698C1663 683.088 1674.86 671 1689.5 671 1704.14 671 1716 683.088 1716 698 1716 712.912 1704.14 725 1689.5 725 1674.86 725 1663 712.912 1663 698Z" fill="#D9D9D9" fill-rule="evenodd"/><path d="M1743 698C1743 683.088 1755.09 671 1770 671 1784.91 671 1797 683.088 1797 698 1797 712.912 1784.91 725 1770 725 1755.09 725 1743 712.912 1743 698Z" fill="#D9D9D9" fill-rule="evenodd"/><path d="M1663 629.5C1663 614.864 1674.86 603 1689.5 603 1704.14 603 1716 614.864 1716 629.5 1716 644.135 1704.14 656 1689.5 656 1674.86 656 1663 644.135 1663 629.5Z" fill="#D9D9D9" fill-rule="evenodd"/><path d="M1743 629.5C1743 614.864 1755.09 603 1770 603 1784.91 603 1797 614.864 1797 629.5 1797 644.135 1784.91 656 1770 656 1755.09 656 1743 644.135 1743 629.5Z" fill="#D9D9D9" fill-rule="evenodd"/><path d="M1743 561C1743 546.088 1755.09 534 1770 534 1784.91 534 1797 546.088 1797 561 1797 575.912 1784.91 588 1770 588 1755.09 588 1743 575.912 1743 561Z" fill="#D9D9D9" fill-rule="evenodd"/></g></svg>