<svg width="433" height="432" xmlns="http://www.w3.org/2000/svg" xmlns:xlink="http://www.w3.org/1999/xlink" xml:space="preserve" overflow="hidden"><g transform="translate(-2609 -1048)"><path d="M2623 1167.39C2623 1109.19 2670.19 1062 2728.39 1062L2922.61 1062C2980.81 1062 3028 1109.19 3028 1167.39L3028 1360.61C3028 1418.81 2980.81 1466 2922.61 1466L2728.39 1466C2670.19 1466 2623 1418.81 2623 1360.61Z" stroke="#D9D9D9" stroke-width="27.5" stroke-miterlimit="8" fill="none" fill-rule="evenodd"/><path d="M2939 1273.5C2939 1340.6 2884.6 1395 2817.5 1395 2750.4 1395 2696 1340.6 2696 1273.5 2696 1226.41 2723.21 1183.56 2765.83 1163.53L2817.5 1273.5Z" fill="#D9D9D9" fill-rule="evenodd"/><path d="M2783.48 1144.6C2844.45 1117.25 2916.05 1144.5 2943.4 1205.48 2950.14 1220.5 2953.74 1236.75 2953.99 1253.21L2833 1255Z" fill="#D9D9D9" fill-rule="evenodd"/></g></svg>