<svg width="432" height="433" xmlns="http://www.w3.org/2000/svg" xmlns:xlink="http://www.w3.org/1999/xlink" xml:space="preserve" overflow="hidden"><g transform="translate(-1447 -1048)"><path d="M1461 1167.39C1461 1109.19 1508.19 1062 1566.39 1062L1759.61 1062C1817.81 1062 1865 1109.19 1865 1167.39L1865 1361.61C1865 1419.81 1817.81 1467 1759.61 1467L1566.39 1467C1508.19 1467 1461 1419.81 1461 1361.61Z" stroke="#D9D9D9" stroke-width="27.5" stroke-miterlimit="8" fill="none" fill-rule="evenodd"/><path d="M1553 1264.5C1553 1204.02 1602.02 1155 1662.5 1155 1722.98 1155 1772 1204.02 1772 1264.5 1772 1324.98 1722.98 1374 1662.5 1374 1602.02 1374 1553 1324.98 1553 1264.5Z" stroke="#D9D9D9" stroke-width="13.75" stroke-miterlimit="8" fill="#FFFFFF" fill-rule="evenodd"/><path d="M0 0 269.306 0.000360892" stroke="#D9D9D9" stroke-width="13.75" stroke-miterlimit="8" fill="none" fill-rule="evenodd" transform="matrix(-1 0 0 1 1797.31 1264)"/><path d="M0 0 0.000360892 280.5" stroke="#D9D9D9" stroke-width="13.75" stroke-miterlimit="8" fill="none" fill-rule="evenodd" transform="matrix(1 0 0 -1 1663 1404.5)"/></g></svg>