<svg width="433" height="432" xmlns="http://www.w3.org/2000/svg" xmlns:xlink="http://www.w3.org/1999/xlink" xml:space="preserve" overflow="hidden"><g transform="translate(-2024 -1048)"><path d="M2038 1167.39C2038 1109.19 2085.19 1062 2143.39 1062L2337.61 1062C2395.81 1062 2443 1109.19 2443 1167.39L2443 1360.61C2443 1418.81 2395.81 1466 2337.61 1466L2143.39 1466C2085.19 1466 2038 1418.81 2038 1360.61Z" stroke="#D9D9D9" stroke-width="27.5" stroke-miterlimit="8" fill="none" fill-rule="evenodd"/><path d="M0 0 269.306 0.000360892" stroke="#D9D9D9" stroke-width="13.75" stroke-miterlimit="8" fill="none" fill-rule="evenodd" transform="matrix(-1 0 0 1 2375.31 1264)"/><path d="M0 0 0.000360892 280.5" stroke="#D9D9D9" stroke-width="13.75" stroke-miterlimit="8" fill="none" fill-rule="evenodd" transform="matrix(1 0 0 -1 2241 1404.5)"/><path d="M0 0 244.594 249.46" stroke="#D9D9D9" stroke-width="27.5" stroke-miterlimit="8" fill="none" fill-rule="evenodd" transform="matrix(1 0 0 -1 2118 1388.46)"/></g></svg>