<svg width="1336" height="567" xmlns="http://www.w3.org/2000/svg" xmlns:xlink="http://www.w3.org/1999/xlink" xml:space="preserve" overflow="hidden"><g transform="translate(-251 -820)"><path d="M1442.34 1258.43C1464.37 1258.43 1482.24 1240.51 1482.24 1218.43L1482.24 1218.43C1482.24 1196.34 1464.37 1178.43 1442.34 1178.43L923.132 1178.43C901.103 1178.43 883.237 1196.34 883.237 1218.43L883.237 1218.43C883.237 1240.51 901.103 1258.43 923.132 1258.43Z" fill="#F2F2F2" fill-rule="evenodd"/><path d="M927.41 1152.43C949.402 1152.43 967.238 1134.74 967.238 1112.93L967.238 1112.93C967.238 1091.12 949.402 1073.43 927.41 1073.43L409.066 1073.43C387.074 1073.43 369.238 1091.12 369.238 1112.93L369.238 1112.93C369.238 1134.74 387.074 1152.43 409.066 1152.43Z" fill="#F2F2F2" fill-rule="evenodd"/><path d="M1227.34 934.427C1249.37 934.427 1267.24 916.514 1267.24 894.426L1267.24 894.426C1267.24 872.339 1249.37 854.426 1227.34 854.426L708.132 854.426C686.103 854.426 668.237 872.339 668.237 894.426L668.237 894.426C668.237 916.514 686.103 934.427 708.132 934.427Z" fill="#F2F2F2" fill-rule="evenodd"/><path d="M1000 1173.5C1000 1099.77 1059.77 1040 1133.5 1040 1207.23 1040 1267 1099.77 1267 1173.5 1267 1247.23 1207.23 1307 1133.5 1307 1059.77 1307 1000 1247.23 1000 1173.5Z" stroke="#C00000" stroke-width="13.75" stroke-miterlimit="8" fill="none" fill-rule="evenodd"/><path d="M473 998C473 903.559 549.559 827 644 827 738.441 827 815 903.559 815 998 815 1092.44 738.441 1169 644 1169 549.559 1169 473 1092.44 473 998Z" stroke="#C00000" stroke-width="13.75" stroke-miterlimit="8" fill="none" fill-rule="evenodd"/><g><g><g><path d="M844.802 784.317C854.665 784.317 863.336 785.43 870.814 787.657 878.291 789.884 884.893 793.305 890.62 797.919 896.348 802.532 901.436 808.498 905.891 815.817 910.345 823.135 914.639 833.078 918.781 845.646 922.914 858.215 926.815 873.806 930.475 892.42 934.135 911.033 937.393 930.359 940.258 950.408L945.034 950.408C975.572 907.453 998.728 876.033 1014.47 856.146 1030.22 836.26 1043.51 821.465 1054.32 811.76 1065.14 802.055 1075.57 795.214 1085.59 791.237 1095.61 787.26 1108.89 785.271 1125.44 785.271 1140.39 785.271 1152.65 787.18 1162.19 790.998L1143.1 877.385 1109.69 877.385C1107.78 864.021 1102.21 857.34 1092.98 857.34 1090.12 857.34 1087.1 857.817 1083.91 858.772 1080.74 859.726 1076.84 861.794 1072.22 864.976 1067.61 868.158 1060.85 874.363 1051.94 883.59 1043.03 892.813 1033.01 904.114 1021.87 917.478 1010.73 930.841 999.281 944.838 987.507 959.477L955.05 1000.05C960.781 1030.6 966.19 1057 971.278 1079.27 976.375 1101.54 980.901 1120.08 984.883 1134.88 988.864 1149.67 992.363 1161.36 995.38 1169.96 998.406 1178.55 1001.66 1184.99 1005.16 1189.28 1008.66 1193.58 1012.24 1196.6 1015.9 1198.35 1019.56 1200.1 1023.78 1200.98 1028.55 1200.98 1037.15 1200.98 1045.49 1197.64 1053.61 1190.95 1061.72 1184.28 1073.42 1169.16 1088.69 1145.62L1119.71 1166.14C1097.44 1199.23 1077.32 1222.54 1059.34 1236.06 1041.36 1249.58 1019.96 1256.34 995.148 1256.34 981.464 1256.34 969.85 1253.88 960.299 1248.95 950.756 1244.01 942.481 1236.14 935.483 1225.32 928.484 1214.5 922.28 1197.64 916.871 1174.72 907.007 1134 900.963 1102.82 898.732 1081.18L893.965 1081.18C860.234 1128.59 835.177 1162.64 818.79 1183.32 802.404 1204 788.881 1219.28 778.221 1229.14 767.562 1239.01 757.222 1245.92 747.199 1249.9 737.176 1253.88 723.891 1255.87 707.346 1255.87 692.391 1255.87 680.141 1253.96 670.595 1250.14L689.686 1163.75 723.096 1163.75C725.005 1177.12 730.573 1183.79 739.8 1183.79 744.255 1183.79 748.948 1182.61 753.88 1180.21 758.812 1177.83 765.892 1172.1 775.119 1163.04 784.347 1153.97 797.074 1139.73 813.301 1120.32 829.529 1100.91 853.075 1071.79 883.938 1032.98 879.165 1007.84 874.233 983.659 869.143 960.432 864.052 937.205 858.802 915.567 853.392 895.518 847.984 875.476 843.529 862.351 840.029 856.146 836.529 849.941 832.79 845.646 828.813 843.26 824.835 840.874 819.824 839.68 813.779 839.68 807.096 839.68 801.051 841.192 795.642 844.214 790.233 847.238 784.347 852.487 777.983 859.964 771.619 867.442 763.187 879.135 752.687 895.045L721.664 874.522C741.71 844.294 760.96 821.703 779.415 806.748 797.87 791.793 819.665 784.317 844.802 784.317Z" stroke="#000000" stroke-width="24.9945" stroke-linejoin="round" stroke-miterlimit="10" fill="#FFC5C5" fill-rule="evenodd" transform="matrix(1 0 0 1.00057 -21.9925 92.6143)"/></g></g></g><path d="M296.452 1068.44C291.363 1068.44 287.24 1072.47 287.24 1077.44L287.24 1077.44C287.24 1082.42 291.363 1086.44 296.452 1086.44L506.028 1086.44C511.118 1086.44 515.24 1082.42 515.24 1077.44L515.24 1077.44C515.24 1072.47 511.118 1068.44 506.028 1068.44Z" fill="#FFC5C5" fill-rule="evenodd"/><path d="M366.489 1113.44C361.377 1113.44 357.236 1117.47 357.236 1122.44L357.236 1122.44C357.236 1127.42 361.377 1131.44 366.489 1131.44L576.985 1131.44C582.096 1131.44 586.237 1127.42 586.237 1122.44L586.237 1122.44C586.237 1117.47 582.096 1113.44 576.985 1113.44Z" fill="#FFC5C5" fill-rule="evenodd"/><path d="M1296.49 1166.41C1291.38 1166.41 1287.24 1170.66 1287.24 1175.91L1287.24 1175.91C1287.24 1181.16 1291.38 1185.41 1296.49 1185.41L1506.98 1185.41C1512.1 1185.41 1516.24 1181.16 1516.24 1175.91L1516.24 1175.91C1516.24 1170.66 1512.1 1166.41 1506.98 1166.41Z" fill="#FFC5C5" fill-rule="evenodd"/><path d="M1366.49 1212.44C1361.38 1212.44 1357.24 1216.47 1357.24 1221.44L1357.24 1221.44C1357.24 1226.42 1361.38 1230.44 1366.49 1230.44L1576.98 1230.44C1582.1 1230.44 1586.24 1226.42 1586.24 1221.44L1586.24 1221.44C1586.24 1216.47 1582.1 1212.44 1576.98 1212.44Z" fill="#FFC5C5" fill-rule="evenodd"/><path d="M1366.49 821.443C1361.38 821.443 1357.24 825.471 1357.24 830.443L1357.24 830.443C1357.24 835.416 1361.38 839.444 1366.49 839.444L1576.98 839.444C1582.1 839.444 1586.24 835.416 1586.24 830.443L1586.24 830.443C1586.24 825.471 1582.1 821.443 1576.98 821.443Z" fill="#C00000" fill-rule="evenodd"/><path d="M260.489 1276.41C255.377 1276.41 251.237 1280.66 251.237 1285.91L251.237 1285.91C251.237 1291.16 255.377 1295.41 260.489 1295.41L470.984 1295.41C476.096 1295.41 480.237 1291.16 480.237 1285.91L480.237 1285.91C480.237 1280.66 476.096 1276.41 470.984 1276.41Z" fill="#C00000" fill-rule="evenodd"/></g></svg>