<svg width="1432" height="630" xmlns="http://www.w3.org/2000/svg" xmlns:xlink="http://www.w3.org/1999/xlink" xml:space="preserve" overflow="hidden"><g transform="translate(-636 -1335)"><path d="M1532.34 1669.43C1554.37 1669.43 1572.24 1651.51 1572.24 1629.43L1572.24 1629.43C1572.24 1607.34 1554.37 1589.43 1532.34 1589.43L1013.13 1589.43C991.102 1589.43 973.237 1607.34 973.237 1629.43L973.237 1629.43C973.237 1651.51 991.102 1669.43 1013.13 1669.43Z" fill="#F2F2F2" fill-rule="evenodd"/><path d="M2027.41 1879.43C2049.4 1879.43 2067.24 1861.74 2067.24 1839.93L2067.24 1839.93C2067.24 1818.12 2049.4 1800.43 2027.41 1800.43L1509.07 1800.43C1487.07 1800.43 1469.24 1818.12 1469.24 1839.93L1469.24 1839.93C1469.24 1861.74 1487.07 1879.43 1509.07 1879.43Z" fill="#F2F2F2" fill-rule="evenodd"/><path d="M1205.41 1422.43C1227.4 1422.43 1245.24 1404.74 1245.24 1382.93L1245.24 1382.93C1245.24 1361.12 1227.4 1343.43 1205.41 1343.43L687.066 1343.43C665.074 1343.43 647.238 1361.12 647.238 1382.93L647.238 1382.93C647.238 1404.74 665.074 1422.43 687.066 1422.43Z" fill="#F2F2F2" fill-rule="evenodd"/><g><g><g><path d="M543.254 809.599C561.062 809.599 576.416 811.051 589.317 813.963L578.687 860.299 554.702 860.299C552.158 849.942 548.842 842.49 544.753 837.949 540.665 833.401 534.623 831.135 526.628 831.135 516.271 831.135 507.503 833.996 500.325 839.717 493.148 845.438 487.016 853.94 481.927 865.199 476.84 876.466 472.115 891.643 467.754 910.722L460.941 940.429 530.989 940.429 524.992 967.958 454.671 967.958 403.975 1205.63C395.616 1245.07 382.806 1274.45 365.544 1293.81 348.281 1313.16 326.567 1322.83 300.401 1322.83 292.769 1322.83 286.773 1322.38 282.412 1321.47L287.046 1297.48C288.862 1298.03 293.133 1298.31 299.856 1298.31 308.033 1298.31 315.029 1296.21 320.843 1292.03 326.658 1287.85 332.064 1280.59 337.061 1270.23 342.058 1259.88 346.646 1245.52 350.825 1227.17L409.426 967.958 363.363 967.958 367.452 949.151C379.626 948.424 388.394 947.427 393.754 946.151 399.114 944.882 403.293 942.974 406.291 940.429 409.29 937.884 411.834 934.568 413.924 930.483 416.013 926.389 418.693 918.9 421.964 907.993 431.595 875.285 446.449 850.712 466.528 834.267 486.606 817.822 512.182 809.599 543.254 809.599Z" stroke="#000000" stroke-width="15.4039" stroke-linejoin="round" stroke-miterlimit="10" fill="#FFC5C5" fill-rule="evenodd" transform="matrix(1.18257 0 0 1 445.458 583.63)"/><path d="M719.881 824.599 727.24 845.585C684.72 859.581 653.239 886.882 632.797 927.49 612.355 968.105 602.134 1019.12 602.134 1080.54 602.134 1144.13 612.355 1196.56 632.797 1237.8 653.239 1279.05 684.447 1306.67 726.422 1320.66L719.881 1341.65C666.64 1327.66 625.847 1297.54 597.5 1251.29 569.154 1205.05 554.981 1149.04 554.981 1083.26 554.981 1017.67 569.199 961.657 597.637 915.225 626.074 868.801 666.822 838.595 719.881 824.599Z" stroke="#000000" stroke-width="15.4039" stroke-linejoin="round" stroke-miterlimit="10" fill="#FFC5C5" fill-rule="evenodd" transform="matrix(1.18257 0 0 1 445.458 583.63)"/><path d="M1030.23 824.599C1083.3 838.595 1124.04 868.801 1152.48 915.225 1180.91 961.657 1195.14 1017.67 1195.14 1083.26 1195.14 1149.04 1180.96 1205.05 1152.61 1251.29 1124.27 1297.54 1083.47 1327.66 1030.23 1341.65L1023.69 1320.66C1065.67 1306.67 1096.87 1279.05 1117.32 1237.8 1137.76 1196.56 1147.98 1144.13 1147.98 1080.54 1147.98 1019.12 1137.8 968.105 1117.46 927.49 1097.1 886.882 1065.57 859.581 1022.88 845.585Z" stroke="#000000" stroke-width="15.4039" stroke-linejoin="round" stroke-miterlimit="10" fill="#FFC5C5" fill-rule="evenodd" transform="matrix(1.18257 0 0 1 445.458 583.63)"/><path d="M820.249 917.067C827.005 917.067 832.939 917.829 838.052 919.355 843.172 920.881 847.69 923.221 851.607 926.375 855.532 929.536 859.016 933.622 862.06 938.625 865.111 943.635 868.053 950.442 870.884 959.046 873.708 967.643 876.378 978.315 878.887 991.056 881.388 1003.79 883.618 1017.02 885.577 1030.74L888.848 1030.74C909.753 1001.34 925.597 979.841 936.373 966.227 947.155 952.62 956.244 942.49 963.645 935.852 971.053 929.206 978.183 924.526 985.042 921.805 991.9 919.084 1001 917.719 1012.32 917.719 1022.55 917.719 1030.94 919.025 1037.47 921.644L1024.4 980.765 1001.54 980.765C1000.23 971.618 996.419 967.048 990.103 967.048 988.144 967.048 986.076 967.371 983.897 968.024 981.726 968.677 979.056 970.093 975.895 972.271 972.741 974.45 968.112 978.697 962.017 985.012 955.921 991.328 949.055 999.059 941.434 1008.2 933.813 1017.35 925.979 1026.93 917.917 1036.95L895.706 1064.71C899.623 1085.61 903.328 1103.69 906.812 1118.94 910.296 1134.18 913.399 1146.86 916.12 1156.99 918.842 1167.12 921.24 1175.12 923.309 1181 925.377 1186.88 927.607 1191.28 930.006 1194.23 932.397 1197.17 934.847 1199.24 937.356 1200.43 939.857 1201.63 942.74 1202.23 946.011 1202.23 951.887 1202.23 957.608 1199.94 963.161 1195.37 968.714 1190.79 976.716 1180.45 987.169 1164.34L1008.4 1178.38C993.154 1201.03 979.379 1216.98 967.078 1226.24 954.777 1235.49 940.128 1240.12 923.147 1240.12 913.78 1240.12 905.829 1238.44 899.301 1235.05 892.765 1231.68 887.102 1226.3 882.312 1218.89 877.523 1211.49 873.276 1199.94 869.571 1184.27 862.823 1156.39 858.686 1135.05 857.16 1120.24L853.896 1120.24C830.812 1152.69 813.662 1175.99 802.447 1190.14 791.232 1204.3 781.982 1214.75 774.683 1221.5 767.392 1228.25 760.314 1232.99 753.455 1235.71 746.59 1238.44 737.501 1239.79 726.177 1239.79 715.942 1239.79 707.558 1238.49 701.026 1235.88L714.092 1176.75 736.958 1176.75C738.264 1185.89 742.071 1190.47 748.387 1190.47 751.438 1190.47 754.651 1189.66 758.025 1188.02 761.399 1186.39 766.248 1182.47 772.563 1176.26 778.879 1170.06 787.586 1160.31 798.691 1147.02 809.797 1133.74 825.912 1113.82 847.038 1087.25 843.766 1070.05 840.392 1053.49 836.908 1037.6 833.423 1021.7 829.829 1006.89 826.132 993.176 822.428 979.46 819.377 970.474 816.985 966.227 814.587 961.98 812.034 959.046 809.305 957.41 806.584 955.774 803.158 954.96 799.021 954.96 794.444 954.96 790.307 955.994 786.61 958.063 782.906 960.131 778.879 963.726 774.522 968.838 770.165 973.958 764.392 981.961 757.211 992.854L735.976 978.807C749.692 958.114 762.874 942.659 775.497 932.419 788.129 922.186 803.048 917.067 820.249 917.067Z" stroke="#000000" stroke-width="15.4039" stroke-linejoin="round" stroke-miterlimit="10" fill="#C00000" fill-rule="evenodd" transform="matrix(1.18257 0 0 1 445.458 583.63)"/></g></g></g><path d="M645.489 1570.41C640.377 1570.41 636.237 1574.66 636.237 1579.91L636.237 1579.91C636.237 1585.16 640.377 1589.41 645.489 1589.41L855.984 1589.41C861.096 1589.41 865.237 1585.16 865.237 1579.91L865.237 1579.91C865.237 1574.66 861.096 1570.41 855.984 1570.41Z" fill="#FFC5C5" fill-rule="evenodd"/><path d="M1734.49 1494.41C1729.38 1494.41 1725.24 1498.66 1725.24 1503.91L1725.24 1503.91C1725.24 1509.16 1729.38 1513.41 1734.49 1513.41L1944.98 1513.41C1950.1 1513.41 1954.24 1509.16 1954.24 1503.91L1954.24 1503.91C1954.24 1498.66 1950.1 1494.41 1944.98 1494.41Z" fill="#C00000" fill-rule="evenodd"/><path d="M1006.49 1798.44C1001.38 1798.44 997.237 1802.47 997.237 1807.44L997.237 1807.44C997.237 1812.42 1001.38 1816.44 1006.49 1816.44L1216.98 1816.44C1222.1 1816.44 1226.24 1812.42 1226.24 1807.44L1226.24 1807.44C1226.24 1802.47 1222.1 1798.44 1216.98 1798.44Z" fill="#C00000" fill-rule="evenodd"/><path d="M1144.49 1335.41C1139.38 1335.41 1135.24 1339.66 1135.24 1344.91L1135.24 1344.91C1135.24 1350.16 1139.38 1354.41 1144.49 1354.41L1354.98 1354.41C1360.1 1354.41 1364.24 1350.16 1364.24 1344.91L1364.24 1344.91C1364.24 1339.66 1360.1 1335.41 1354.98 1335.41Z" fill="#FFC5C5" fill-rule="evenodd"/><path d="M946.489 1761.44C941.378 1761.44 937.237 1765.47 937.237 1770.44L937.237 1770.44C937.237 1775.42 941.378 1779.44 946.489 1779.44L1156.98 1779.44C1162.1 1779.44 1166.24 1775.42 1166.24 1770.44L1166.24 1770.44C1166.24 1765.47 1162.1 1761.44 1156.98 1761.44Z" fill="#C00000" fill-rule="evenodd"/><path d="M1824.45 1537.41C1819.36 1537.41 1815.24 1541.66 1815.24 1546.91L1815.24 1546.91C1815.24 1552.16 1819.36 1556.41 1824.45 1556.41L2034.03 1556.41C2039.12 1556.41 2043.24 1552.16 2043.24 1546.91L2043.24 1546.91C2043.24 1541.66 2039.12 1537.41 2034.03 1537.41Z" fill="#C00000" fill-rule="evenodd"/></g></svg>