<svg width="1421" height="621" xmlns="http://www.w3.org/2000/svg" xmlns:xlink="http://www.w3.org/1999/xlink" xml:space="preserve" overflow="hidden"><defs><clipPath id="clip0"><rect x="2114" y="1585" width="1421" height="621"/></clipPath></defs><g clip-path="url(#clip0)" transform="translate(-2114 -1585)"><path d="M34.5002 0C15.4463-5.25168e-15-5.25168e-15 15.4463-5.25168e-15 34.5002L0 34.5002C0 53.5542 15.4463 69.0005 34.5002 69.0005L483.5 69.0001C502.554 69.0001 518 53.5538 518 34.4999L518 34.5002C518 15.4463 502.554-5.25168e-15 483.5-5.25168e-15Z" fill="#F2F2F2" fill-rule="evenodd" transform="matrix(1 -1.22465e-16 -1.22465e-16 -1 2913 2122)"/><path d="M8.00026 0C3.58184-1.31292e-15 0 3.58184 0 8.00026L0 8.00026C0 12.4187 3.58184 16.0005 8.00026 16.0005L141 16.0002C145.419 16.0002 149.001 12.4183 149.001 7.9999L149 8.00026C149 3.58184 145.418-1.31292e-15 141 0Z" fill="#D9D9D9" fill-rule="evenodd" transform="matrix(1 -1.22465e-16 -1.22465e-16 -1 3386 2093)"/><path d="M8.00026 0C3.58184-1.31292e-15 0 3.58184 0 8.00026L0 8.00026C0 12.4187 3.58184 16.0005 8.00026 16.0005L198 16.0002C202.418 16.0002 206 12.4183 206 7.9999L206 8.00026C206 3.58184 202.418-1.31292e-15 198 0Z" fill="#D9D9D9" fill-rule="evenodd" transform="matrix(1 -1.22465e-16 -1.22465e-16 -1 3282 2060)"/><path d="M8.00026 0C3.58184-1.31292e-15 0 3.58184 0 8.00026L0 8.00026C0 12.4187 3.58184 16.0005 8.00026 16.0005L141 16.0002C145.418 16.0002 149 12.4183 149 7.9999L149 8.00026C149 3.58184 145.418-1.31292e-15 141 0Z" fill="#D9D9D9" fill-rule="evenodd" transform="matrix(1 -1.22465e-16 -1.22465e-16 -1 3346 2126)"/><path d="M2701.5 1736C2720.55 1736 2736 1720.55 2736 1701.5L2736 1701.5C2736 1682.45 2720.55 1667 2701.5 1667L2252.5 1667C2233.45 1667 2218 1682.45 2218 1701.5L2218 1701.5C2218 1720.55 2233.45 1736 2252.5 1736Z" fill="#F2F2F2" fill-rule="evenodd"/><path d="M2253.5 1707C2258.19 1707 2262 1703.19 2262 1698.5L2262 1698.5C2262 1693.81 2258.19 1690 2253.5 1690L2122.5 1690C2117.81 1690 2114 1693.81 2114 1698.5L2114 1698.5C2114 1703.19 2117.81 1707 2122.5 1707Z" fill="#D9D9D9" fill-rule="evenodd"/><path d="M2358.5 1674C2363.19 1674 2367 1670.19 2367 1665.5L2367 1665.5C2367 1660.81 2363.19 1657 2358.5 1657L2168.5 1657C2163.81 1657 2160 1660.81 2160 1665.5L2160 1665.5C2160 1670.19 2163.81 1674 2168.5 1674Z" fill="#D9D9D9" fill-rule="evenodd"/><path d="M2294.5 1740C2299.19 1740 2303 1736.19 2303 1731.5L2303 1731.5C2303 1726.81 2299.19 1723 2294.5 1723L2162.5 1723C2157.81 1723 2154 1726.81 2154 1731.5L2154 1731.5C2154 1736.19 2157.81 1740 2162.5 1740Z" fill="#D9D9D9" fill-rule="evenodd"/><path d="M2974 1765 2974 1929.98C2974 1956.5 2952.5 1978 2925.98 1978L2761 1978C2761 1860.36 2856.36 1765 2974 1765Z" stroke="#000000" stroke-width="10.3125" stroke-miterlimit="8" fill="#C00000" fill-rule="evenodd"/><path d="M2635.03 1590 2925.97 1590C2952.49 1590 2974 1611.56 2974 1638.16L2974 1764.39C2856.33 1764.39 2760.94 1860.02 2760.94 1978L2635.03 1978C2608.51 1978 2587 1956.44 2587 1929.84L2587 1638.16C2587 1611.56 2608.51 1590 2635.03 1590Z" stroke="#000000" stroke-width="10.3125" stroke-miterlimit="8" fill="#FFC5C5" fill-rule="evenodd"/><path d="M2974.5 1765C3092.41 1765 3188 1860.59 3188 1978.5 3188 2096.41 3092.41 2192 2974.5 2192 2856.59 2192 2761 2096.41 2761 1978.5L2926.37 1978.5C2952.95 1978.5 2974.5 1956.95 2974.5 1930.37L2974.5 1765Z" stroke="#000000" stroke-width="10.3125" stroke-miterlimit="8" fill="#F2F2F2" fill-rule="evenodd"/><path d="M3008.25 1734.4C3099.09 1747.17 3175.28 1809.43 3205.9 1895.91" stroke="#C00000" stroke-width="10.3125" stroke-miterlimit="8" fill="none" fill-rule="evenodd"/><path d="M2871.05 2201.42C2794.97 2166.36 2741.96 2095.01 2730.37 2012.05" stroke="#C00000" stroke-width="10.3125" stroke-miterlimit="8" fill="none" fill-rule="evenodd"/><path d="M2303 1962C2298.58 1962 2295 1965.58 2295 1970L2295 1970C2295 1974.42 2298.58 1978 2303 1978L2485 1978C2489.42 1978 2493 1974.42 2493 1970L2493 1970C2493 1965.58 2489.42 1962 2485 1962Z" fill="#FFC5C5" fill-rule="evenodd"/><path d="M3155 1711C3150.58 1711 3147 1714.58 3147 1719L3147 1719C3147 1723.42 3150.58 1727 3155 1727L3338 1727C3342.42 1727 3346 1723.42 3346 1719L3346 1719C3346 1714.58 3342.42 1711 3338 1711Z" fill="#FFC5C5" fill-rule="evenodd"/><path d="M2364 2001C2359.58 2001 2356 2004.58 2356 2009L2356 2009C2356 2013.42 2359.58 2017 2364 2017L2546 2017C2550.42 2017 2554 2013.42 2554 2009L2554 2009C2554 2004.58 2550.42 2001 2546 2001Z" fill="#FFC5C5" fill-rule="evenodd"/><path d="M3213 1674C3208.58 1674 3205 1677.58 3205 1682L3205 1682C3205 1686.42 3208.58 1690 3213 1690L3396 1690C3400.42 1690 3404 1686.42 3404 1682L3404 1682C3404 1677.58 3400.42 1674 3396 1674Z" fill="#FFC5C5" fill-rule="evenodd"/></g></svg>