<svg width="1570" height="742" xmlns="http://www.w3.org/2000/svg" xmlns:xlink="http://www.w3.org/1999/xlink" xml:space="preserve" overflow="hidden"><defs><clipPath id="clip0"><rect x="2071" y="1102" width="1570" height="742"/></clipPath><clipPath id="clip1"><rect x="2513" y="1102" width="627" height="742"/></clipPath><clipPath id="clip2"><rect x="2513" y="1102" width="627" height="742"/></clipPath></defs><g clip-path="url(#clip0)" transform="translate(-2071 -1102)"><path d="M3592.41 1261.43C3614.4 1261.43 3632.24 1243.51 3632.24 1221.43L3632.24 1221.43C3632.24 1199.34 3614.4 1181.43 3592.41 1181.43L3074.07 1181.43C3052.07 1181.43 3034.24 1199.34 3034.24 1221.43L3034.24 1221.43C3034.24 1243.51 3052.07 1261.43 3074.07 1261.43Z" fill="#F2F2F2" fill-rule="evenodd"/><path d="M2703.34 1741.43C2725.37 1741.43 2743.24 1723.51 2743.24 1701.43L2743.24 1701.43C2743.24 1679.34 2725.37 1661.43 2703.34 1661.43L2184.13 1661.43C2162.1 1661.43 2144.24 1679.34 2144.24 1701.43L2144.24 1701.43C2144.24 1723.51 2162.1 1741.43 2184.13 1741.43Z" fill="#F2F2F2" fill-rule="evenodd"/><path d="M2439.02 1563.61C2519.89 1563.7 2594.03 1608.64 2631.52 1680.3" stroke="#C00000" stroke-width="20.625" stroke-miterlimit="8" fill="none" fill-rule="evenodd"/><path d="M3290.07 1369.49C3210.46 1365.19 3139.57 1317.69 3105.34 1245.68" stroke="#C00000" stroke-width="20.625" stroke-miterlimit="8" fill="none" fill-rule="evenodd"/><path d="M3342.49 1359.41C3337.38 1359.41 3333.24 1363.66 3333.24 1368.91L3333.24 1368.91C3333.24 1374.16 3337.38 1378.41 3342.49 1378.41L3552.98 1378.41C3558.1 1378.41 3562.24 1374.16 3562.24 1368.91L3562.24 1368.91C3562.24 1363.66 3558.1 1359.41 3552.98 1359.41Z" fill="#C00000" fill-rule="evenodd"/><path d="M2166.49 1552.41C2161.38 1552.41 2157.24 1556.66 2157.24 1561.91L2157.24 1561.91C2157.24 1567.16 2161.38 1571.41 2166.49 1571.41L2376.98 1571.41C2382.1 1571.41 2386.24 1567.16 2386.24 1561.91L2386.24 1561.91C2386.24 1556.66 2382.1 1552.41 2376.98 1552.41Z" fill="#C00000" fill-rule="evenodd"/><path d="M3420.49 1415.44C3415.38 1415.44 3411.24 1419.47 3411.24 1424.44L3411.24 1424.44C3411.24 1429.42 3415.38 1433.44 3420.49 1433.44L3630.98 1433.44C3636.1 1433.44 3640.24 1429.42 3640.24 1424.44L3640.24 1424.44C3640.24 1419.47 3636.1 1415.44 3630.98 1415.44Z" fill="#C00000" fill-rule="evenodd"/><path d="M2080.49 1491.44C2075.38 1491.44 2071.24 1495.47 2071.24 1500.44L2071.24 1500.44C2071.24 1505.42 2075.38 1509.44 2080.49 1509.44L2290.98 1509.44C2296.1 1509.44 2300.24 1505.42 2300.24 1500.44L2300.24 1500.44C2300.24 1495.47 2296.1 1491.44 2290.98 1491.44Z" fill="#C00000" fill-rule="evenodd"/><path d="M2451.49 1271.44C2446.38 1271.44 2442.24 1275.47 2442.24 1280.44L2442.24 1280.44C2442.24 1285.42 2446.38 1289.44 2451.49 1289.44L2661.98 1289.44C2667.1 1289.44 2671.24 1285.42 2671.24 1280.44L2671.24 1280.44C2671.24 1275.47 2667.1 1271.44 2661.98 1271.44Z" fill="#FFC5C5" fill-rule="evenodd"/><path d="M2521.49 1316.44C2516.38 1316.44 2512.24 1320.47 2512.24 1325.44L2512.24 1325.44C2512.24 1330.42 2516.38 1334.44 2521.49 1334.44L2731.98 1334.44C2737.1 1334.44 2741.24 1330.42 2741.24 1325.44L2741.24 1325.44C2741.24 1320.47 2737.1 1316.44 2731.98 1316.44Z" fill="#FFC5C5" fill-rule="evenodd"/><path d="M2989.45 1532.44C2984.36 1532.44 2980.24 1536.47 2980.24 1541.44L2980.24 1541.44C2980.24 1546.42 2984.36 1550.44 2989.45 1550.44L3199.03 1550.44C3204.12 1550.44 3208.24 1546.42 3208.24 1541.44L3208.24 1541.44C3208.24 1536.47 3204.12 1532.44 3199.03 1532.44Z" fill="#FFC5C5" fill-rule="evenodd"/><path d="M3059.49 1577.44C3054.38 1577.44 3050.24 1581.47 3050.24 1586.44L3050.24 1586.44C3050.24 1591.42 3054.38 1595.44 3059.49 1595.44L3269.98 1595.44C3275.1 1595.44 3279.24 1591.42 3279.24 1586.44L3279.24 1586.44C3279.24 1581.47 3275.1 1577.44 3269.98 1577.44Z" fill="#FFC5C5" fill-rule="evenodd"/><path d="M2725.34 1409.74C2747.37 1409.74 2765.24 1401.68 2765.24 1391.74L2765.24 1391.74C2765.24 1381.8 2747.37 1373.74 2725.34 1373.74L2206.13 1373.74C2184.1 1373.74 2166.24 1381.8 2166.24 1391.74L2166.24 1391.74C2166.24 1401.68 2184.1 1409.74 2206.13 1409.74Z" fill="#F2F2F2" fill-rule="evenodd"/><path d="M3489.34 1508.74C3511.37 1508.74 3529.24 1500.68 3529.24 1490.74L3529.24 1490.74C3529.24 1480.8 3511.37 1472.74 3489.34 1472.74L2970.13 1472.74C2948.1 1472.74 2930.24 1480.8 2930.24 1490.74L2930.24 1490.74C2930.24 1500.68 2948.1 1508.74 2970.13 1508.74Z" fill="#F2F2F2" fill-rule="evenodd"/><g clip-path="url(#clip1)"><g clip-path="url(#clip2)"><g><path d="M1904.99 889.182C1912.21 889.182 1920.2 890.162 1928.97 892.121 1937.74 894.081 1945.21 896.505 1951.4 899.392L1947.69 959.415 1915.82 959.415C1914.17 950.339 1910.87 942.863 1905.91 936.984 1900.97 931.106 1894.37 928.166 1886.11 928.166 1864.05 928.166 1849.56 946.06 1842.65 981.846 1835.73 1017.63 1832.28 1099.68 1832.28 1227.97 1832.28 1334.4 1822.54 1418.87 1803.04 1481.36 1783.55 1543.87 1749.15 1575.11 1699.86 1575.11 1689.96 1575.11 1681.3 1574.29 1673.87 1572.64 1666.44 1570.98 1659.22 1568.31 1652.22 1564.6L1656.24 1503.65 1685.32 1503.65C1688 1513.55 1691.97 1521.69 1697.23 1528.08 1702.49 1534.48 1709.96 1537.68 1719.66 1537.68 1741.32 1537.68 1754.93 1515.25 1760.51 1470.38 1766.07 1425.52 1768.85 1360.08 1768.85 1274.07 1768.85 1140 1779.01 1042.34 1799.34 981.072 1819.65 919.812 1854.87 889.182 1904.99 889.182Z" stroke="#000000" stroke-width="21.0213" stroke-linejoin="round" stroke-miterlimit="10" fill="#FFC5C5" fill-rule="evenodd" transform="matrix(1.62335 0 0 1 -65.8675 233.242)"/><path d="M2115.08 1112.14C2121.47 1112.14 2127.09 1112.86 2131.94 1114.3 2136.79 1115.74 2141.06 1117.96 2144.78 1120.96 2148.49 1123.94 2151.79 1127.81 2154.68 1132.56 2157.57 1137.3 2160.35 1143.74 2163.03 1151.89 2165.72 1160.04 2168.24 1170.15 2170.61 1182.21 2172.98 1194.28 2175.1 1206.81 2176.96 1219.81L2180.05 1219.81C2199.85 1191.96 2214.86 1171.59 2225.07 1158.7 2235.28 1145.81 2243.89 1136.21 2250.9 1129.93 2257.91 1123.63 2264.67 1119.2 2271.16 1116.62 2277.66 1114.04 2286.28 1112.75 2297 1112.75 2306.7 1112.75 2314.64 1113.99 2320.82 1116.46L2308.45 1172.47 2286.79 1172.47C2285.56 1163.8 2281.95 1159.48 2275.96 1159.48 2274.11 1159.48 2272.15 1159.79 2270.08 1160.4 2268.02 1161.02 2265.5 1162.36 2262.51 1164.42 2259.51 1166.48 2255.13 1170.51 2249.35 1176.49 2243.58 1182.47 2237.08 1189.8 2229.86 1198.46 2222.64 1207.11 2215.22 1216.19 2207.59 1225.68L2186.55 1251.98C2190.26 1271.78 2193.77 1288.91 2197.07 1303.34 2200.37 1317.78 2203.31 1329.8 2205.89 1339.39 2208.46 1348.98 2210.73 1356.56 2212.69 1362.12 2214.65 1367.7 2216.77 1371.87 2219.03 1374.65 2221.3 1377.44 2223.63 1379.4 2226 1380.54 2228.37 1381.67 2231.1 1382.24 2234.2 1382.24 2239.76 1382.24 2245.18 1380.07 2250.43 1375.74 2255.7 1371.41 2263.28 1361.61 2273.18 1346.35L2293.29 1359.65C2278.85 1381.1 2265.81 1396.22 2254.15 1404.98 2242.5 1413.74 2228.62 1418.13 2212.53 1418.13 2203.67 1418.13 2196.14 1416.53 2189.95 1413.33 2183.77 1410.13 2178.4 1405.03 2173.87 1398.02 2169.32 1391 2165.31 1380.07 2161.79 1365.22 2155.41 1338.82 2151.48 1318.61 2150.04 1304.58L2146.95 1304.58C2125.09 1335.31 2108.84 1357.39 2098.22 1370.79 2087.59 1384.19 2078.83 1394.09 2071.91 1400.49 2065 1406.89 2058.3 1411.37 2051.8 1413.95 2045.3 1416.53 2036.7 1417.82 2025.98 1417.82 2016.28 1417.82 2008.34 1416.58 2002.15 1414.1L2014.52 1358.11 2036.19 1358.11C2037.42 1366.77 2041.03 1371.1 2047.01 1371.1 2049.9 1371.1 2052.94 1370.33 2056.14 1368.78 2059.34 1367.23 2063.92 1363.52 2069.91 1357.64 2075.89 1351.76 2084.13 1342.53 2094.66 1329.95 2105.18 1317.37 2120.44 1298.5 2140.45 1273.33 2137.36 1257.04 2134.16 1241.36 2130.85 1226.3 2127.56 1211.25 2124.16 1197.21 2120.65 1184.22 2117.14 1171.23 2114.26 1162.72 2111.98 1158.7 2109.71 1154.68 2107.29 1151.89 2104.72 1150.35 2102.13 1148.8 2098.89 1148.02 2094.97 1148.02 2090.63 1148.02 2086.72 1149.01 2083.21 1150.97 2079.7 1152.92 2075.89 1156.32 2071.76 1161.18 2067.64 1166.02 2062.17 1173.6 2055.37 1183.91L2035.25 1170.61C2048.25 1151.02 2060.73 1136.37 2072.69 1126.67 2084.66 1116.98 2098.78 1112.14 2115.08 1112.14Z" stroke="#000000" stroke-width="21.0213" stroke-linejoin="round" stroke-miterlimit="10" fill="#FFC5C5" fill-rule="evenodd" transform="matrix(1.62335 0 0 1 -65.8675 233.242)"/></g></g></g></g></svg>