<svg width="889" height="614" xmlns="http://www.w3.org/2000/svg" xmlns:xlink="http://www.w3.org/1999/xlink" xml:space="preserve" overflow="hidden"><defs><clipPath id="clip0"><rect x="1465" y="231" width="889" height="614"/></clipPath></defs><g clip-path="url(#clip0)" transform="translate(-1465 -231)"><path d="M1590 312.5C1590 293.446 1605.45 278 1624.5 278L1993.5 278C2012.55 278 2028 293.446 2028 312.5L2028 312.5C2028 331.554 2012.55 347 1993.5 347L1624.5 347C1605.45 347 1590 331.554 1590 312.5Z" fill="#F2F2F2" fill-rule="evenodd"/><path d="M1719 772C1719 753.222 1734.22 738 1753 738L2249 738C2267.78 738 2283 753.222 2283 772L2283 772C2283 790.778 2267.78 806 2249 806L1753 806C1734.22 806 1719 790.778 1719 772Z" fill="#F2F2F2" fill-rule="evenodd"/><path d="M2012.5 236C2150.29 236 2262 347.705 2262 485.5" stroke="#C00000" stroke-width="10.3125" stroke-miterlimit="8" fill="none" fill-rule="evenodd"/><path d="M1819.59 371 1835.27 372.585C1936.13 393.278 2012 482.754 2012 589.998 2012 620.639 2005.81 649.83 1994.61 676.38L1976.41 710 1960.73 708.415C1859.87 687.722 1784 598.245 1784 491.002 1784 460.361 1790.19 431.17 1801.39 404.62L1819.59 371Z" stroke="#000000" stroke-width="10.3125" stroke-miterlimit="8" fill="#FFFFFF" fill-rule="evenodd"/><path d="M2005.62 269C2128.44 269 2228 368.393 2228 491 2228 613.607 2128.44 713 2005.62 713L1976.56 710.075 1994.84 676.443C2006.09 649.884 2012.32 620.683 2012.32 590.031 2012.32 482.75 1936.09 393.242 1834.75 372.542L1819 370.956 1821.22 366.878C1861.18 307.826 1928.86 269 2005.62 269Z" stroke="#000000" stroke-width="10.3125" stroke-miterlimit="8" fill="#FFC5C5" fill-rule="evenodd"/><path d="M1790.38 368 1819.44 370.925 1801.16 404.557C1789.91 431.116 1783.68 460.317 1783.68 490.969 1783.68 598.25 1859.91 687.758 1961.25 708.458L1977 710.044 1974.78 714.122C1934.82 773.174 1867.14 812 1790.38 812 1667.56 812 1568 712.607 1568 590 1568 467.393 1667.56 368 1790.38 368Z" stroke="#000000" stroke-width="10.3125" stroke-miterlimit="8" fill="#C00000" fill-rule="evenodd"/><path d="M0 8.49992C-2.37121e-15 3.80554 3.80553-3.55683e-15 8.49989-2.37122e-15L140.5 0C145.195-2.37122e-15 149 3.80554 149 8.49992L149 8.49992C149 13.1943 145.195 16.9998 140.5 16.9998L8.49989 16.9998C3.80553 16.9998-1.18561e-15 13.1943-1.18561e-15 8.49992Z" fill="#FFC5C5" fill-rule="evenodd" transform="matrix(1 0 0 -1 1570 319)"/><path d="M0 8.49992C0 3.80554 3.8055-3.29427e-15 8.49981-3.29427e-15L198.5 0C203.194-1.64714e-15 207 3.80554 207 8.49992L207 8.49992C207 13.1943 203.194 16.9998 198.5 16.9998L8.49981 16.9998C3.8055 16.9998 0 13.1943 0 8.49992Z" fill="#FFC5C5" fill-rule="evenodd" transform="matrix(1 0 0 -1 1465 286)"/><path d="M0 8.49992C-2.37121e-15 3.80554 3.80552-3.55683e-15 8.49987-2.37122e-15L140.5 0C145.194-2.37122e-15 149 3.80554 149 8.49992L149 8.49992C149 13.1943 145.194 16.9998 140.5 16.9998L8.49987 16.9998C3.80552 16.9998-1.1856e-15 13.1943-1.1856e-15 8.49992Z" fill="#FFC5C5" fill-rule="evenodd" transform="matrix(1 0 0 -1 1529 352)"/><path d="M2205 771C2205 766.582 2208.58 763 2213 763L2346 763C2350.42 763 2354 766.582 2354 771L2354 771C2354 775.418 2350.42 779 2346 779L2213 779C2208.58 779 2205 775.418 2205 771Z" fill="#C00000" fill-rule="evenodd"/><path d="M2101 804C2101 799.582 2104.58 796 2109 796L2299 796C2303.42 796 2307 799.582 2307 804L2307 804C2307 808.418 2303.42 812 2299 812L2109 812C2104.58 812 2101 808.418 2101 804Z" fill="#C00000" fill-rule="evenodd"/><path d="M2165 738C2165 733.582 2168.58 730 2173 730L2306 730C2310.42 730 2314 733.582 2314 738L2314 738C2314 742.418 2310.42 746 2306 746L2173 746C2168.58 746 2165 742.418 2165 738Z" fill="#C00000" fill-rule="evenodd"/><path d="M1785.5 840C1647.7 840 1536 728.295 1536 590.5" stroke="#FFC5C5" stroke-width="10.3125" stroke-miterlimit="8" fill="none" fill-rule="evenodd"/></g></svg>