<svg width="3056" height="2112" xmlns="http://www.w3.org/2000/svg" xmlns:xlink="http://www.w3.org/1999/xlink" xml:space="preserve" overflow="hidden"><defs><clipPath id="clip0"><rect x="602" y="35" width="3056" height="2112"/></clipPath></defs><g clip-path="url(#clip0)" transform="translate(-602 -35)"><path d="M1031.47 315.417C1031.47 249.97 1084.59 196.917 1150.09 196.917L2418.85 196.917C2484.35 196.917 2537.47 249.97 2537.47 315.417L2537.47 315.417C2537.47 380.863 2484.35 433.917 2418.85 433.917L1150.09 433.917C1084.59 433.917 1031.47 380.863 1031.47 315.417Z" fill="#F2F2F2" fill-rule="evenodd"/><path d="M1474.47 1894.92C1474.47 1830.3 1526.8 1777.92 1591.36 1777.92L3296.58 1777.92C3361.15 1777.92 3413.47 1830.3 3413.47 1894.92L3413.47 1894.92C3413.47 1959.54 3361.15 2011.92 3296.58 2011.92L1591.36 2011.92C1526.8 2011.92 1474.47 1959.54 1474.47 1894.92Z" fill="#F2F2F2" fill-rule="evenodd"/><path d="M2483.97 53.4168C2957.81 53.4168 3341.97 437.109 3341.97 910.417" stroke="#C00000" stroke-width="35.4494" stroke-miterlimit="8" fill="none" fill-rule="evenodd"/><path d="M1820.85 516.917 1874.77 522.364C2221.58 593.477 2482.47 900.968 2482.47 1269.52 2482.47 1374.82 2461.19 1475.14 2422.67 1566.38L2360.09 1681.92 2306.17 1676.47C1959.36 1605.36 1698.47 1297.86 1698.47 929.313 1698.47 824.013 1719.76 723.695 1758.27 632.454L1820.85 516.917Z" stroke="#000000" stroke-width="50.4167" stroke-miterlimit="8" fill="#FFFFFF" fill-rule="evenodd"/><path d="M2460.01 165.917C2882.22 165.917 3224.47 507.524 3224.47 928.917 3224.47 1350.31 2882.22 1691.92 2460.01 1691.92L2360.11 1681.86 2422.95 1566.27C2461.62 1474.99 2483.04 1374.63 2483.04 1269.28 2483.04 900.562 2220.99 592.929 1872.61 521.784L1818.47 516.333 1826.1 502.317C1963.47 299.359 2196.13 165.917 2460.01 165.917Z" stroke="#000000" stroke-width="50.4167" stroke-miterlimit="8" fill="#FFC5C5" fill-rule="evenodd"/><path d="M1719.94 505.917 1819.83 515.976 1756.99 631.643C1718.32 722.984 1696.9 823.412 1696.9 928.83 1696.9 1297.79 1958.96 1605.62 2307.33 1676.82L2361.47 1682.27 2353.84 1696.3C2216.47 1899.39 1983.81 2032.92 1719.94 2032.92 1297.72 2032.92 955.471 1691.09 955.471 1269.42 955.471 847.748 1297.72 505.917 1719.94 505.917Z" stroke="#000000" stroke-width="50.4167" stroke-miterlimit="8" fill="#C00000" fill-rule="evenodd"/><path d="M0.0378798 29.0255C0.0378798 13.0092 13.1147 0.0254317 29.2454 0.0254317L482.83 0.0254317C498.963 0.0254317 512.038 13.0092 512.038 29.0255L512.038 29.0255C512.038 45.0417 498.963 58.0252 482.83 58.0252L29.2454 58.0252C13.1147 58.0252 0.0378798 45.0417 0.0378798 29.0255Z" fill="#FFC5C5" fill-rule="evenodd" transform="matrix(1 0 0 -1 963 338)"/><path d="M0 29.5141C0 13.2216 13.0893 0.0138461 29.2362 0.0138461L682.764 0.0138461C698.909 0.0138461 712 13.2216 712 29.5141L712 29.5141C712 45.8066 698.909 59.014 682.764 59.014L29.2362 59.014C13.0893 59.014 0 45.8066 0 29.5141Z" fill="#FFC5C5" fill-rule="evenodd" transform="matrix(1 0 0 -1 602 225)"/><path d="M0.0231338 29.0375C0.0231338 13.0211 13.1255 0.0372523 29.2877 0.0372523L483.758 0.0372523C499.92 0.0372523 513.023 13.0211 513.023 29.0375L513.023 29.0375C513.023 45.0538 499.92 58.0373 483.758 58.0373L29.2877 58.0373C13.1255 58.0373 0.0231338 45.0538 0.0231338 29.0375Z" fill="#FFC5C5" fill-rule="evenodd" transform="matrix(1 0 0 -1 822 451)"/><path d="M3145.47 1891.42C3145.47 1876.23 3157.77 1863.92 3172.96 1863.92L3629.98 1863.92C3645.17 1863.92 3657.47 1876.23 3657.47 1891.42L3657.47 1891.42C3657.47 1906.6 3645.17 1918.92 3629.98 1918.92L3172.96 1918.92C3157.77 1918.92 3145.47 1906.6 3145.47 1891.42Z" fill="#C00000" fill-rule="evenodd"/><path d="M2788.47 2005.42C2788.47 1990.23 2800.78 1977.92 2815.97 1977.92L3468.98 1977.92C3484.17 1977.92 3496.47 1990.23 3496.47 2005.42L3496.47 2005.42C3496.47 2020.6 3484.17 2032.92 3468.98 2032.92L2815.97 2032.92C2800.78 2032.92 2788.47 2020.6 2788.47 2005.42Z" fill="#C00000" fill-rule="evenodd"/><path d="M3008.47 1778.42C3008.47 1763.23 3020.77 1750.92 3035.96 1750.92L3492.98 1750.92C3508.17 1750.92 3520.47 1763.23 3520.47 1778.42L3520.47 1778.42C3520.47 1793.6 3508.17 1805.92 3492.98 1805.92L3035.96 1805.92C3020.77 1805.92 3008.47 1793.6 3008.47 1778.42Z" fill="#C00000" fill-rule="evenodd"/><path d="M1703.97 2129.42C1230.09 2129.42 845.971 1745.28 845.971 1271.42" stroke="#FFC5C5" stroke-width="35.4494" stroke-miterlimit="8" fill="none" fill-rule="evenodd"/></g></svg>