<svg width="883" height="524" xmlns="http://www.w3.org/2000/svg" xmlns:xlink="http://www.w3.org/1999/xlink" xml:space="preserve" overflow="hidden"><defs><clipPath id="clip0"><rect x="928" y="986" width="883" height="524"/></clipPath></defs><g clip-path="url(#clip0)" transform="translate(-928 -986)"><path d="M996 1234.5C996 1220.42 1007.42 1209 1021.5 1209L1147.5 1209C1161.58 1209 1173 1220.42 1173 1234.5L1173 1234.5C1173 1248.58 1161.58 1260 1147.5 1260L1021.5 1260C1007.42 1260 996 1248.58 996 1234.5Z" fill="#D9D9D9" fill-rule="evenodd"/><path d="M1264 1085.5C1264 1071.42 1275.42 1060 1289.5 1060L1414.5 1060C1428.58 1060 1440 1071.42 1440 1085.5L1440 1085.5C1440 1099.58 1428.58 1111 1414.5 1111L1289.5 1111C1275.42 1111 1264 1099.58 1264 1085.5Z" fill="#D9D9D9" fill-rule="evenodd"/><path d="M979 1377.98C979 1354.79 997.794 1336 1020.98 1336L1150.02 1336C1173.21 1336 1192 1354.79 1192 1377.98L1192 1389.02C1192 1412.21 1173.21 1431 1150.02 1431L1020.98 1431C997.794 1431 979 1412.21 979 1389.02Z" stroke="#000000" stroke-width="10.3125" stroke-miterlimit="8" fill="#FFFFFF" fill-rule="evenodd"/><path d="M1246 1377.98C1246 1354.79 1264.79 1336 1287.98 1336L1417.02 1336C1440.21 1336 1459 1354.79 1459 1377.98L1459 1389.02C1459 1412.21 1440.21 1431 1417.02 1431L1287.98 1431C1264.79 1431 1246 1412.21 1246 1389.02Z" stroke="#000000" stroke-width="10.3125" stroke-miterlimit="8" fill="#FFC5C5" fill-rule="evenodd"/><path d="M1512 1377.98C1512 1354.79 1530.79 1336 1553.98 1336L1683.02 1336C1706.21 1336 1725 1354.79 1725 1377.98L1725 1389.02C1725 1412.21 1706.21 1431 1683.02 1431L1553.98 1431C1530.79 1431 1512 1412.21 1512 1389.02Z" stroke="#000000" stroke-width="10.3125" stroke-miterlimit="8" fill="#C00000" fill-rule="evenodd"/><path d="M1246 1228.98C1246 1205.79 1264.79 1187 1287.98 1187L1417.02 1187C1440.21 1187 1459 1205.79 1459 1228.98L1459 1240.02C1459 1263.21 1440.21 1282 1417.02 1282L1287.98 1282C1264.79 1282 1246 1263.21 1246 1240.02Z" stroke="#000000" stroke-width="10.3125" stroke-miterlimit="8" fill="#FFFFFF" fill-rule="evenodd"/><path d="M1512 1228.98C1512 1205.79 1530.79 1187 1553.98 1187L1683.02 1187C1706.21 1187 1725 1205.79 1725 1228.98L1725 1240.02C1725 1263.21 1706.21 1282 1683.02 1282L1553.98 1282C1530.79 1282 1512 1263.21 1512 1240.02Z" stroke="#000000" stroke-width="10.3125" stroke-miterlimit="8" fill="#FFC5C5" fill-rule="evenodd"/><path d="M1512 1079.98C1512 1056.79 1530.79 1038 1553.98 1038L1683.02 1038C1706.21 1038 1725 1056.79 1725 1079.98L1725 1091.02C1725 1114.21 1706.21 1133 1683.02 1133L1553.98 1133C1530.79 1133 1512 1114.21 1512 1091.02Z" stroke="#000000" stroke-width="10.3125" stroke-miterlimit="8" fill="#FFFFFF" fill-rule="evenodd"/><path d="M1018 1085.5C1018 1074.73 1026.73 1066 1037.5 1066L1138.5 1066C1149.27 1066 1158 1074.73 1158 1085.5L1158 1085.5C1158 1096.27 1149.27 1105 1138.5 1105L1037.5 1105C1026.73 1105 1018 1096.27 1018 1085.5Z" fill="#F2F2F2" fill-rule="evenodd"/><path d="M0 8.00008C-2.32347e-15 3.58176 3.58171-2.3235e-15 7.99998-2.3235e-15L576 0C580.418-2.3235e-15 584 3.58176 584 8.00008L584 8.00008C584 12.4184 580.418 16.0002 576 16.0002L7.99998 16.0002C3.58171 16.0002-1.16173e-15 12.4184-1.16173e-15 8.00008Z" fill="#C00000" fill-rule="evenodd" transform="matrix(1 0 0 -1 928 1002)"/><path d="M0 8.5001C0 3.80562 3.80561-3.48522e-15 8.50006-4.64696e-15L575.5 0C580.194-1.16174e-15 584 3.80562 584 8.5001L584 8.5001C584 13.1946 580.194 17.0002 575.5 17.0002L8.50006 17.0002C3.80561 17.0002 0 13.1946 0 8.5001Z" fill="#FFC5C5" fill-rule="evenodd" transform="matrix(1 0 0 -1 1227 1510)"/></g></svg>