<svg width="1216" height="733" xmlns="http://www.w3.org/2000/svg" xmlns:xlink="http://www.w3.org/1999/xlink" xml:space="preserve" overflow="hidden"><g transform="translate(-2205 -757)"><path d="M2752.67 1061.34 3402.27 1061.34 2752.67 1451.1Z" stroke="#000000" stroke-width="10.3125" stroke-miterlimit="8" fill="#FFC5C5" fill-rule="evenodd"/><path d="M2874.2 1186.4 2224.59 1186.4 2874.2 796.638Z" stroke="#000000" stroke-width="10.3125" stroke-miterlimit="8" fill="#FFC5C5" fill-rule="evenodd"/><rect x="2753" y="1064" width="123" height="122" stroke="#000000" stroke-width="10.3125" stroke-miterlimit="8" fill="#C00000"/><rect x="2654" y="1186" width="97" height="96.9999" stroke="#000000" stroke-width="10.3125" stroke-miterlimit="8" fill="#F2F2F2"/><rect x="2874" y="964" width="98" height="97.0002" stroke="#000000" stroke-width="10.3125" stroke-miterlimit="8" fill="#F2F2F2"/><path d="M2319.86 1083.78C2315.96 1086.14 2314.71 1091.21 2317.06 1095.11L2317.06 1095.11C2319.41 1099.01 2324.48 1100.26 2328.39 1097.91L2867.72 772.59C2871.63 770.236 2872.88 765.166 2870.53 761.265L2870.53 761.264C2868.17 757.363 2863.1 756.108 2859.2 758.462Z" fill="#D9D9D9" fill-rule="evenodd"/><path d="M2340.12 1033.06C2336.21 1035.41 2334.96 1040.48 2337.31 1044.38L2337.31 1044.38C2339.67 1048.28 2344.74 1049.54 2348.64 1047.18L2633.81 875.176C2637.71 872.823 2638.96 867.752 2636.61 863.851L2636.61 863.85C2634.26 859.949 2629.19 858.694 2625.28 861.048Z" fill="#D9D9D9" fill-rule="evenodd"/><path d="M2649.07 844.282C2645.17 846.635 2643.91 851.706 2646.27 855.607L2646.27 855.607C2648.62 859.509 2653.69 860.764 2657.59 858.411L2771.01 789.998C2774.91 787.644 2776.17 782.574 2773.81 778.672L2773.81 778.672C2771.46 774.771 2766.39 773.516 2762.49 775.869Z" fill="#FFC5C5" fill-rule="evenodd"/><path d="M2763.23 1470.42C2759.32 1472.76 2758.05 1477.83 2760.39 1481.74L2760.39 1481.74C2762.73 1485.65 2767.79 1486.92 2771.7 1484.58L3312.11 1161.04C3316.02 1158.7 3317.29 1153.63 3314.95 1149.72L3314.95 1149.72C3312.61 1145.81 3307.54 1144.54 3303.63 1146.88Z" fill="#D9D9D9" fill-rule="evenodd"/><path d="M2824.3 1473.72C2820.39 1476.06 2819.12 1481.13 2821.46 1485.04L2821.46 1485.04C2823.8 1488.95 2828.87 1490.22 2832.78 1487.88L3118.51 1316.81C3122.42 1314.47 3123.69 1309.4 3121.35 1305.49L3121.35 1305.49C3119.01 1301.58 3113.94 1300.31 3110.03 1302.65Z" fill="#D9D9D9" fill-rule="evenodd"/><path d="M3133.72 1288.73C3129.82 1291.07 3128.54 1296.14 3130.88 1300.05L3130.88 1300.05C3133.22 1303.96 3138.29 1305.23 3142.2 1302.89L3255.84 1234.85C3259.75 1232.51 3261.03 1227.44 3258.69 1223.53L3258.69 1223.53C3256.34 1219.62 3251.28 1218.35 3247.37 1220.69Z" fill="#FFC5C5" fill-rule="evenodd"/></g></svg>